<?xml version="1.0" encoding="UTF-8"?>
<svg fill="#5DD6B0" id="Layer_1" data-name="Layer 1" xmlns="http://www.w3.org/2000/svg" viewBox="0 0 1920 5215">
  <g id="avFXoA.tif">
    <g>
      <path d="m291.16,1822.38c2.25,2.86,5.62,5.4,6.57,8.64,8.24,28.24,10.56,57.35,32.26,82.12,11.65,13.3,13.57,38.29,13.53,57.99-.11,48.78,36.47,80.38,84.85,72.81,27.99-4.38,32.08-26.59,34.43-45.08,6.11-48.1,15.61-94.49,38.41-137.79,3.04-5.77,1.47-14.87-.08-21.97-6.89-31.62-17.1-62.75-21.25-94.68-4.92-37.84-4.86-76.33-2.2-115.49,17.43,60.38,38.5,120.04,50.75,181.45,6.16,30.89-7.3,65.18-5.34,97.53,2.26,37.21,10.95,74.15,19.11,110.71,1.03,4.62,17.78,10.96,23.73,8.38,26.8-11.59,34.22-31.81,23.91-60.43-4.24-11.77-.7-26.34,5.43-40.76,9.78,28.61,18.28,57.75,29.91,85.59,5.23,12.53,14.38,27.3,25.75,32.73,48.57,23.21,100.36,32.76,154.04,22.78,8.46-1.57,16.74-10.14,22.8-17.39,22.78-27.24,44.51-53.18,86.3-50.18,21.42,1.54,41.44-39.34,33.46-66.96-8.71,6.49-16.27,12.85-24.53,18.1-8.76,5.56-18.19,10.06-27.33,15.02-1.82-1.83-3.64-3.66-5.46-5.49,14.6-16.32,26.19-40.54,44.39-47.47,51.85-19.75,77.14-61.61,104.2-104.33,18.41-29.07,40.3-55.94,60.23-83.23,24.48,9.37,28.85,15.81,16.65,33.18-27.15,38.65-39.33,86.95-80.95,116.85-15.32,11.01-23.29,33.39-32.38,51.69-34.38,69.23-69.52,138.17-100.93,208.74-15.71,35.3-25.5,73.52-34.91,111.18-4.42,17.69,18.74,34.77,37.59,30.22,26.23-6.33,52.25-13.55,71.8-18.67-11.62,23.08-25.1,48.66-37.5,74.76-14.34,30.17-1.05,45,29.12,50.13,4.33.74,8.1,4.72,9.71,5.72-11.76,5.64-28.88,8.79-36.73,19.02-8.21,10.7-10.88,28.41-10.09,42.74,3.09,56.47,3.83,57.47,66.15,64.79,63.33,7.44,127,12,190.37,19.08,11.77,1.32,22.87,8.64,27.15,10.35-61.53,3.04-128.98,5.54-196.28,10.14-23.06,1.57-30.31,16.53-20.21,30-12.78,1.42-27.24.91-39.84,5.5-4.81,1.75-5.35,15.18-8.43,25.22,11.61,1.15,20.35,2.02,23.86,2.37,7.14,17.08,13.37,32,17.01,40.72-21.75-4.48-52.6-11.67-83.81-16.68-8-1.28-22.21,2.11-24.44,7.27-2.95,6.84,2,18.01,5.62,26.42,2.19,5.09,9.11,7.94,12.46,12.79,4.82,6.98,8.34,14.87,12.41,22.37-9.82,3.27-20.95,11.26-29.22,8.96-30.94-8.61-63.62-7.93-91.25-33.19-24.86-22.73-38.94-12.5-56.42,32.53,9.93,5.36,21.08,9.75,29.97,16.93,3.8,3.07,2.9,11.94,4.14,18.17-4.38.14-9.26,1.62-13.04.19-14.9-5.64-31.26-19.81-43.77-16.85-27.5,6.5-56.87,16.75-78.29,34.24-24.17,19.73-40.45,49.1-62.4,77.11-10.73-12.1-14.96-21.27-21.2-22.93-10.78-2.87-22.81-1.08-34.31-1.24.79,11.31,1.25,22.65,2.46,33.91.95,8.82,2.82,17.53,4.63,28.35-9.37-2.39-12.5-2.31-13.02-3.44-19.41-41.86-34.15-45.2-62.7-8.55-15.42,19.79-24.39,45.03-34.12,68.69-12.12,29.49-38.64,42.26-71.71,40.67-18.61-.89-39.36,6.99-56.31,16.15-23.77,12.84-44.9,30.56-66.67,45.84-25.31-28.4-29.16-49.07-3.41-79.74,28.2-33.58,34.58-72.21,41.99-111.81,4.62-24.69-13.64-39.47-38.29-31.99-11.73,3.56-23.79,9.19-35.52,8.79-17.42-.59-34.7-5.7-52.03-8.89.33-2.71.66-5.42.99-8.13-17.56,7.81-35.12,15.61-52.69,23.42-1.15-1.98-2.3-3.96-3.45-5.94,16.26-11.97,32.29-24.25,48.85-35.79,12.42-8.66,27.39-15.22,17.26-34.95-9.56-18.61-23.78-19.68-42.48-15.06-38.54,9.52-77.6,16.97-118.38,19.09,11.94-3.87,24.21-6.97,35.77-11.76,27.01-11.18,53.9-22.73,80.34-35.17,5.72-2.69,13.79-10.24,13.28-14.7-3.29-28.57-11.88-56.83-12.49-85.33-.66-30.62-13.38-49.1-39.82-61.34-42.44-19.66-91.47-86.06-83.86-120.86,10.73-49.07,28.09-96.66,40.96-145.32,11.88-44.93.21-84.23-22.77-125.44-26.46-47.43-73.39-68.28-109.43-102.75-32.65-31.22-48.04-71.62-52.46-113.57-2.72-25.78-14.85-40.78-31.61-52.53-30.35-21.27-63.77-38.11-95.26-57.83-15.48-9.69-20.57-44.66-6.67-57.05,14.8-13.2,33.05-27.08,54.96-12.9,23.47,15.19,27.26,35.77,12.08,56.72-3.51,4.84-7.25,9.52-14.17,18.57,13,12.35,24.61,27.17,39.58,36.73,25.21,16.11,51.34,32.26,79.3,42.21,36.04,12.82,65.62,29.04,81.89,66.16,14.04,32.01,27.68,66.05,49.9,92.03,17.14,20.04,45.99,36.56,71.99,41.04,37.98,6.54,78.66,17.18,116.77-9.96,12.57-8.95,35.19-2.49,52.23-6.88,16.84-4.34,34.07-11.19,48.12-21.17,13.86-9.85,18.2-25.12,21.91-44.23,14.66-75.55.55-145.91-28.43-215.4,2.33-.78,4.65-1.57,6.98-2.35Zm637.6,534.08c-2.27-3.18-4.54-6.35-6.81-9.53-9.55,1.32-26.92,1.44-27.34,4.16-2.02,13.18.51,27.06,1.42,40.69,4.06.95,8.13,1.89,12.19,2.84,6.85-12.72,13.69-25.44,20.54-38.15Z"/>
      <path d="m1468.99,1689.75c-1.03-7.17-2.01-13.94-3.02-20.96,17.49-5.33,36.42-17.64,52.2-14.44,26.73,5.43,30.66-.67,25.13-24.38-2.22-9.53-.37-20,3.13-31.63,3.13,7.47,6.31,14.92,9.39,22.41,7.16,17.38,17.28,14.81,30.94,6.6,9.4-5.66,21.12-7.93,32.11-10.34,7.04-1.54,15.22,1.2,21.87-1.01,44.93-14.91,48.6-21.53,49.14-71.7.22-20.46,3.35-40.89,5.16-61.34,3.64.15,7.27.29,10.91.44v125.96c-2.71-1.03.39-.76,2.08.93,21.55,21.47,42.73,43.31,64.37,64.68,10.37,10.25,23.84,18.15,31.76,29.9,12,17.78,20.38,37.99,32.18,60.8,29.03-23.27,47.46,13.32,82.42,16.94-11.71,10.15-18.2,15.77-22.81,19.77,13.49,21.48,26.97,42.95,42.91,68.34-27.78,4.75-47.71,10.81-67.68,10.93-29.2.19-46.27,17.51-51.23,40.56-4.37,20.28,6.79,40.17,32.25,45.95,4.86,1.1,11.81,9.92,11.38,14.6-2.25,24.86-6.66,49.53-10.01,74.3-.66,4.91-1.77,11.03.39,14.86,13.54,23.89,27.11,45.81,22.93,76.99-1.48,11.05,5.05,21.24-6.8,31.98-3.14,2.85,1.84,20.19,7.82,26.21,8.76,8.83,21.76,13.46,32.96,19.88-1.49,2.47-2.97,4.93-4.46,7.4-4.2-2.93-8.34-5.96-12.61-8.79-26.68-17.7-51.72-12.66-75.62,11.11-37.23,37.01-72.02,73.99-94.47,123.72-20.26,44.88-105.57,48.75-144.74,16.57-18.83-15.47-45.77-21.1-65.72-29.76-15.53,19.5-28.35,35.6-46.38,58.24-23-63.22-23.39-117.19-10.38-179.13-18.68-1.92-37.84-3.88-62.77-6.44q-17.39-19.93-75.94,20.85c17.69-46.17,73.23-80.08,32.03-133.6,11.31-8.73,22.69-17.52,34.07-26.31-1.68-4.99-3.36-9.99-5.04-14.98-30.65-4.53-61.3-9.06-94.35-13.94,13.67-5.39,25.26-8.63,35.36-14.45,5.66-3.27,8.85-10.82,13.15-16.45-6.78-2.58-13.44-6.82-20.37-7.35-10.73-.81-21.65.91-33.44,1.62,0-9.15,2.61-19.03-.46-26.63-12.81-31.72-4.74-51.12,27.77-66.7,7.58-3.63,16.02-11.94,17.55-19.43,1.03-5.01-9.18-12.62-14.84-18.62-9.89-10.48-20.15-20.61-27.5-33.22,14.12,8.28,24.41,28.21,36.33-3.42,4.55-12.07,18.77-20.15,26.06-31.64,8.38-13.23,13.97-28.22,19.35-39.48,9.14,2.33,27.88,13.61,38.85,8.44,18.99-8.95,26.49-29.55,20.45-53.34-4.45-17.54.67-31.79,23.42-32.95,7.46-.38,14.69-5.38,22.81-8.59Z"/>
      <path d="m505.77,2987.98c21.52-20.27,42.2-38.09,60.29-58.23,3.47-3.86-.61-18.97-5.72-25.19-15.56-18.94-13.88-36.16,9.43-51.97,2.58,9.6,6.35,18.48,7.16,27.62,2.7,30.58,11.35,54.37,47.26,60.17,33.8,5.45,46.43,48.89,45.28,81.05-.98,27.56-18.26,47.55-47.06,58.85-59.25,23.25-44.32,22.9-104.06-41.93-13.26-14.39-19.78-17.96-38.5-9.81-14.14,6.15-39.45,7.21-48.67-1.37-10.05-9.36-12.94-33.96-8.85-49.22,7.18-26.79,46.08-32.39,64.64-12.15,5.92,6.46,11.36,13.36,18.8,22.18Z"/>
      <path d="m419.62,1052.93c-4.54-2.39-12.35-7.02-20.57-10.73-14.46-6.52-30.19-10.87-43.44-19.22-9.32-5.88-20.07-16.16-21.56-25.81-1.42-9.2,5.92-23.4,13.92-29.26,6.7-4.91,19.99-1.73,30.23-.72,15.46,1.53,30.76,5.83,46.18,6.17,22.44.49,36.49,15.59,36.63,42.79.12,24-10.96,36.72-41.39,36.78Z"/>
      <path d="m1221.94,3173.44c-4.04-34.88,21.73-48.98,57.73-49.28,14.37-.12,45.46,46.92,39.84,67.11-3.87,13.92-16.83,34.16-27.87,35.64-36.66,4.93-70.61-24.32-69.7-53.47Z"/>
      <path d="m991.11,1350.75c16.1,41.69,10.53,63.22-17.51,72.24-15.21,4.89-44.47-12.43-47.85-28.32-4.62-21.72,15.2-35.33,65.36-43.92Z"/>
      <path d="m76.63,1063.44c-19.98,18.26-31.39,37.29-45.51,39.56-20.89,3.35-29.93-16.59-31.38-36.78-1.59-22.1,8.92-41.37,29.85-39.87,13.85.99,26.41,19.96,47.03,37.09Z"/>
      <path d="m62.17,2850.1c-29.6,16.72-59.2,33.44-88.8,50.15-1.75-3.34-3.51-6.67-5.26-10.01,30.05-15.99,60.1-31.97,90.16-47.96,1.3,2.6,2.6,5.21,3.9,7.81Z"/>
      <path d="m1047.23,2895.69c-24.29-13.6-48.59-27.2-72.88-40.8,1.45-2.54,2.9-5.09,4.35-7.63,23.83,13.89,47.67,27.78,71.5,41.66-.99,2.26-1.98,4.51-2.97,6.77Z"/>
      <path d="m1779.95,1628.26c19.24-22.82,38.16-45.25,57.08-67.69,1.87,1.57,3.74,3.14,5.61,4.71-20.4,21.83-40.8,43.66-61.2,65.49-.75-1.26-1.5-2.53-1.49-2.51Z"/>
      <path d="m1481.33,1318.18c4.91,17.49,9.83,34.99,14.74,52.48-3.54,1-7.09,2-10.63,3-5-17.48-10-34.95-15-52.43l10.9-3.05Z"/>
      <path d="m1104.51,2599.14c-26.72-2.53-53.44-5.05-80.17-7.58l.64-6.37c26.29,2.66,52.59,5.33,78.88,7.99.22,1.99.43,3.97.65,5.96Z"/>
      <path d="m1155.95,2938.79c12.61,8.12,25.21,16.24,41.74,26.88-35.28,22.19-34.03-10.59-41.74-26.88Z"/>
    </g>
  </g>
  <g id="avFXoA.tif-2" data-name="avFXoA.tif">
    <g>
      <path d="m1975.1,4896.85c7.76,3.47,15.53,6.95,23.29,10.42-31.85-2.8-56.92-2.01-65.6,36.24,20.86,2.12,48.4-1.74,36.01,34.3-1.29,3.75,10.65,12.05,15.16,16.85-29.51-6.03-60.78-14.01-92.55-18.05-10.98-1.39-23.2,7.04-34.86,10.98,5.08,12.64,8.45,26.39,15.75,37.58,6.21,9.52,16.96,16.07,26.16,24.35-30.35,24.34-97.09,16.13-125.64-6.82-14.92-11.99-38.39-19.11-57.33-17.92-9.44.6-17.38,24.86-26.05,38.5,17.53,14.25,33.04,26.87,48.55,39.48-1.41,2.99-2.81,5.98-4.22,8.96-6.9-1.64-14.89-1.58-20.51-5.2-42.91-27.59-123.71-3.76-145.22,41.88-6.67,14.15-17.89,26.85-29.26,37.91-10.74,10.44-24.43,17.86-38.66,27.92-5.48-6.06-10.72-17-18.41-19.14-11.25-3.13-28.14-4.42-35.37,1.85-6.45,5.6-4.44,22.63-3.6,34.43.81,11.31,4.91,22.38,7.56,33.56-3.56,1.13-7.12,2.27-10.68,3.4-4.68-7.91-8.21-16.89-14.3-23.51-11.99-13.03-22.31-28.61-43.56-7.66-22.57,22.26-41.64,43.57-49.67,76.24-14.13,57.51-39.7,71.34-101.18,69.85-16.62-.4-34.61,8.62-49.98,16.97-14.3,7.78-24.9,22.26-39.06,30.45-15.76,9.11-39.04,24.73-49.59,19.27-22.19-11.49-13.73-37.61-6.85-58.27,3.12-9.36,7.82-19.02,14.34-26.28,31.68-35.28,42.13-78.75,47.72-123.6,1.59-12.74.1-31.69-7.84-38.2-8.49-6.95-27.6-6.46-39.75-2.36-33.79,11.4-65.51,19.85-90.93-14.12-60.34,34.71-119.2,68.57-184.23,105.98,11.62-40.36,45.53-37.16,66.78-51.35,22.47-15.01,45.82-28.71,68.38-43.61,23-15.19,45.49-31.16,67.34-46.19-11.37-48.48-16.77-51.56-61.37-40.13-32.82,8.41-65.87,15.96-95.3,23.05,33.23-19.55,67.86-41.02,103.56-60.54,21.59-11.81,21.71-28.13,17.71-48.86-5.33-27.65-8.65-55.73-11.82-83.74-3.37-29.78-26.86-41.58-47.41-56.96-44.61-33.39-88.15-68.03-90.6-130.81-.04-1.14-.72-2.38-.43-3.38,16.52-56.52,31.03-113.75,50.39-169.28,14.35-41.15,14.91-80.23-2.04-119.41-23.09-53.38-58.86-95.69-107.69-128.8-56.67-38.43-80.92-95.42-86.73-163.34-1.61-18.83-17.45-40.62-33.08-53.2-32.41-26.09-69.24-46.66-103.91-70-22.57-15.2-19.71-59.46,5.26-74.59,11.45-6.94,24.71-10.88,36.9-16.07,40.9,33.3,41.72,39.69,19.56,84.78-3.79,7.71-3.21,24.25,2.08,28.68,38.54,32.28,74.23,68.32,127.18,79.74,36.7,7.91,64.87,31.58,81.73,67.26,12.39,26.23,32.62,49.89,39.85,77.2,20.24,76.47,81.72,84.49,143.18,89.45,23.38,1.89,47.77-11.83,72.03-16.85,23.45-4.86,47.21-9.02,71.04-11.1,42.79-3.73,74.77-36.8,77.77-78.61,1.92-26.75,12.68-53.27,11.99-79.69-.84-32.01-9.65-63.8-14.88-95.71-2.13-12.96-3.92-25.98-6.62-44.02,15.49,34.55,29.8,63.41,41.23,93.37,5.08,13.31,2.32,29.47,6.65,43.22,7.86,24.97,12.59,54.54,29.22,72.23,20.51,21.82,54.98,21.18,81.7,8.16,11.4-5.55,18.11-27.37,20.84-42.88,9.74-55.26,17.15-110.57,44.76-161.24,6.72-12.33,8.06-34.34,1.43-45.93-20.26-35.44-18.52-73.13-19.24-110.88-.78-41.19-.18-82.41,1.26-124.36,1.57,14.58,1.06,29.77,5.13,43.62,8.58,29.2,18.02,58.35,29.9,86.32,20.91,49.22,20.4,98.18,12.06,150.56-10.47,65.72,1.65,131.13,21.08,194.79,47.12-11.76,59.11-30.8,51.1-73.28-3.38-17.95-2.4-36.73,2.64-55.85,10.94,36.02,19.74,72.9,33.78,107.67,6.27,15.54,20.57,32.32,35.51,39.08,52.2,23.6,108.05,31.32,164.94,21.98,9.32-1.53,18.17-12.64,25.06-21.09,26.81-32.89,53.44-61.55,101.56-65.48,37.3-3.04,34.07-42.79,47.38-67.12-2.57-2.72-5.15-5.44-7.72-8.16-20.09,13.65-40.18,27.29-63.59,43.2,9.92-50.55,48.69-71.4,83.97-89.26,27.84-14.09,42.13-35.48,57.71-58.29,28.18-41.26,55.04-83.47,84.51-123.77,5.87-8.02,20.96-9.31,31.8-13.7-.72,11.84,2.76,26.38-2.84,35.08-31.27,48.61-55.07,101.08-96.33,144.75-31.21,33.04-45.44,82.16-67.01,124.24-33.12,64.64-67.89,128.54-98.3,194.44-15.57,33.74-24.71,70.75-33.92,107.01-6.76,26.63,20.75,47.28,49.12,39.67,22.55-6.05,45.35-11.19,75-18.44-51.2,72.93-82.99,123.38-2.46,152.51-33.76,4.97-56.96,21.5-53.96,61.65,1.05,14.12.14,28.4-.2,42.6-.61,25.23,26.44,47.05,56.95,48.77,78.83,4.46,157.62,9.78,236.35,15.8,9.38.72,18.27,7.93,35.21,15.74-96.15-5.86-183.83-8.27-267.73,22.07-1.68,3.68-3.37,7.35-5.05,11.03Zm-80.65-274.37c-5.07,1.85-10.15,3.7-15.22,5.55l3.02,51.75c4.12,1.47,8.23,2.94,12.35,4.41,6.54-10.08,18.38-20.25,18.19-30.2-.2-10.61-11.75-21.01-18.34-31.51Z"/>
      <path d="m709.43,2683.67c3.02,2.71,6.04,5.43,12.49,11.23,2.36-28.13,4.47-53.26,7.11-84.82,6.08-1.55,20.52-5.22,43.5-11.07-7.41,14.05-11.73,22.23-15.82,29.98,62.66,15.75,91.38,102.46,48.87,151.65-27.56,31.88-29.27,54.06-8.3,92.89,17.26,31.97,21.31,66.89.06,96.19-10.46,14.42-36.56,26.66-53.64,24.5-16.5-2.09-35.35-21.18-44.7-37.62-28.67-50.38-9.01-96.37,17.59-141.97,6.47-11.1,2.19-29.61.08-44.31-3.95-27.54-9.94-54.79-15.08-82.15,2.61-1.49,5.22-2.99,7.83-4.48Z"/>
      <path d="m-22.07,3642.19c.87-38.12,28.79-64.48,67.21-63.48,49.38,1.29,81.22,35.36,79.61,85.17-1.53,47.14-31.97,73.84-83.33,73.09-32.92-.48-64.56-47.72-63.48-94.79Z"/>
      <path d="m738.36,4974.74c6.16,32.69-45.83,72.33-85.07,74.09-26.94,1.21-56.25-40.32-55.8-75.25.56-43.23,40.63-80.01,84.98-77.99,32.84,1.49,56.47,34.95,55.9,79.16Z"/>
      <path d="m1291.39,3045.47c5.13,1.43,10.27,2.87,15.4,4.3-1.14-8.5-2.28-17-3.69-27.48,6.8-4.71,16.56-11.46,26.31-18.22-.58,2.71-1.16,5.42-1.75,8.12,21.23,4.27,43.38,14.55,63.48,11.47,33.81-5.18,39.08,18.66,43.58,38.04,5.26,22.66-1.64,47.14-29.33,52.27-14.03,2.6-30.4,7.93-44.5-11.17-8.67-11.75-33.16-10.52-47.57-19.77-11.52-7.39-18.55-21.79-27.57-33.08,1.88-1.5,3.76-2.99,5.63-4.49Z"/>
      <path d="m243.17,4236.61c-1.12-33.43,19.45-53.98,55.25-55.19,25.15-.85,52,22.44,52.73,45.75.85,27.02-29.34,71.13-49.37,72.13-42.16,2.11-56.98-13.74-58.61-62.68Z"/>
      <path d="m990.72,3129.66c-10.67,30.59-18.05,54.22-46.91,51.61-24.19-2.19-32.19-22.95-31.46-46.02.8-25.3,22.3-51.28,40.25-43.63,15.33,6.53,25.61,24.91,38.12,38.05Z"/>
      <path d="m471.89,3746.56c13.87-12.51,25.87-30.53,42.11-36.01,17.17-5.79,48.59,27.42,41.94,43.86-6.77,16.74-21.95,33.68-37.9,42.03-14.4,7.54-40.79-23.58-46.15-49.88Z"/>
      <path d="m495.22,4462.28c6.15-19.53,7.77-32.52,14.35-42.12,3.07-4.47,19.79-6.13,23.22-2.45,7.11,7.64,9.48,19.69,14.7,32.07-17.51,4.19-29.05,6.94-52.26,12.49Z"/>
    </g>
  </g>
</svg>