<?xml version="1.0" encoding="UTF-8"?>
<svg  fill="#5DD6B0" id="Layer_1" data-name="Layer 1" xmlns="http://www.w3.org/2000/svg" viewBox="0 0 1920 3555">
  <g id="avFXoA.tif">
    <g>
      <path d="m165.07,1150.18c9.58-1.43,19.46-2.9,29.34-4.38-3.5-5.79-6.99-11.58-12.09-20.02.34-4.1,1.08-13.04,1.56-18.8,15.32,8.42,35.14,19.33,55.56,30.55,8.59-13.83,10.17-22.86-.52-32.61-3.39-3.09-2.48-10.9-3.54-16.55,5.85-.15,12.95-2.52,17.32-.06,16.63,9.36,34.76,14.72,46.88,33.46,10.61,16.41,25.74,19.13,39.91-9.86-2.1-1.28-5.14-2.08-6.17-3.97-3.32-6.12-5.89-12.64-8.76-19,4.65,2.78,9.6,5.15,13.89,8.4,22.17,16.73,55.49,13.28,76.78-4.43,12.27-10.2,28.79-15.29,43.47-22.71,6.1,11.24,5.16,24.94,22.36,19.31,10.47-3.43,10.82-7.66,8.59-16.49-1.47-5.81-.28-12.28-.28-18.46,2.05-.1,4.09-.2,6.14-.29,1.41,3.76,3.34,7.42,4.15,11.31,3.14,15.26,14.16,20.84,26.53,11.32,12.11-9.32,23.86-19.89,33.12-31.95,17.1-22.27,32.68-26.21,58.34-15.79,8.77,3.56,20.84.79,30.96-1.28,10.99-2.25,21.33-7.56,32.22-10.53,5.66-1.54,11.9-.92,17.88-1.27.45,7.77,3.97,17.32.7,22.94-6.5,11.19-17.39,19.73-25.25,30.27-11.81,15.83-24.24,31.57-33.26,48.97-7.31,14.1,1.54,23.85,18.09,24.48,9.87.37,19.95.85,29.45,3.24,4.95,1.25,8.45,7.44,13.3,10.12,4.65,2.56,10.75,5.77,15.29,4.73,26.76-6.16,53.19-13.76,79.9-20.18,5.47-1.31,11.66.35,17.52.64.13,2.23.26,4.46.39,6.69-14.08,2.41-28.4,3.9-42.18,7.45-22.48,5.78-44.6,12.96-66.9,19.45-9.01,2.62-19.05,6.29-12.85,17.51,3.7,6.7,12.67,13.57,20.07,14.6,23.75,3.3,47.87,3.92,71.7,9.19-12.96,0-26.2-1.65-38.82.43-15.18,2.5-29.91,7.96-44.65,12.72-2.26.73-4.74,4.41-5.04,6.97-2.31,20-6.16,40.15-5.21,60.05.49,10.24,10.05,19.94,15.06,30.1,10.91,22.13,23.31,43.79,31.27,66.96,2.59,7.53-5.91,19.58-10.8,28.79-7.96,14.97-17.15,29.27-25.75,43.91-2.19,3.72-3.21,8.61-6.25,11.28-24.15,21.24-24.1,46.96-21.08,77.05,3.71,37,30.23,59.31,46.85,87.57,15.22,25.86,16.42,52.54,12.02,78.7-2.46,14.66,2.98,23.53,9.16,31.73,13.41,17.8,30.65,32.69,44.3,50.34,7.04,9.1,9.16,20.35-1.5,31.67-10.82,11.48-24.41,13.04-33.15,5.11-6.87-6.24-8.38-21.38-7.47-32.17.63-7.44,15.25-16.47,13.53-20.81-5.03-12.75-13.83-24.73-23.49-34.75-14.43-14.97-31.5-27.37-46.16-42.15-6.51-6.56-11.85-15.72-14.24-24.64-6.47-24.09-8.1-49.91-17.49-72.64-6.08-14.74-20.45-28.62-34.61-36.84-19.9-11.54-41.26-21.07-67.41-14.15-12.96,3.43-28.83-5.95-43.56-6.92-19.96-1.31-35.08,11.56-41.34,29.76-8.79,25.58-18.75,50.75-28.88,77.89-2.58-14.39-9.68-26.67-3.83-43.4,4.14-11.85,5.83-28.55.45-38.79-8.05-15.32-27.28-22.54-43.79-19.02-8.99,1.92-17.71,15.99-22.09,26.44-9.53,22.73-22.14,42.74-38.1,61.47-5.56,6.53-7.89,18.52-6.87,27.47,3.93,34.65-11.22,65-16.04,97.57-1.54-.17-3.07-.33-4.61-.5-2.09-24.25-7.97-48.94-5.2-72.62,2.77-23.69,16.11-45.94,21.31-69.59,6.19-28.13,8.64-57.08,12.82-86.49-31.39,1.15-34.92,4.53-38.01,27.75-1.3,9.78-4.69,19.29-7.13,28.92-1.9-.16-3.79-.32-5.69-.48,0-18.22,1.3-36.58-.54-54.61-.94-9.19-5.22-20.57-11.96-26.17-23.37-19.42-48.46-37.07-80.86-37.17-6.43-.02-13.72,1.65-19.15,4.95-18.72,11.37-36.02,20.96-60.66,15.8-9.36-1.96-22.64,14.82-34.14,23.06,1.3,2.48,2.6,4.97,3.91,7.45,12.62-3.27,25.24-6.55,37.14-9.63-6.71,14.55-15.22,22.26-35.6,25.97-26.19,4.76-47.78,14.26-65.85,35.79-13.39,15.96-33.36,26.57-51.04,38.62-3.7,2.52-10.23.92-15.45,1.21.6-5.18-.73-13.06,2.12-15.1,22.41-16.07,34.25-44.38,63.78-52.73,9.96-2.82,18.6-12.74,26.23-20.92,37.82-40.55,75.72-81.07,112.23-122.78,11.81-13.49,20.82-29.96,28.63-46.25,6.15-12.83-4.72-24.97-18.94-25.25-16.57-.32-33.12-1.92-50.66-3.03,27.45-9.09,44.57-26.95,52.31-55.14-7.17-6.79-14.81-14.03-23.59-22.34,14.9,4.82,29.03,3.25,34.94-11.88,4.82-12.34,7.9-26.49,6.98-39.49-.51-7.15-9.6-16.39-17.07-19.83-23.38-10.76-48.02-18.76-71.81-28.69-21.98-9.17-43.49-19.43-64.43-30.12,35.31,8.56,70.57,17.34,105.96,25.53,8.77,2.03,18.19,9.98,26.82.02,2.06-2.38,2.13-6.48,2.57-7.92Zm20.01,125.71c-14.36.47-17.1,9.36-14.62,20.42.61,2.71,8.07,6.86,9.61,5.9,9.74-6.08,14.11-14.41,5.01-26.32Z"/>
      <path d="m524.49,2456.81c-5.6,9.59-11.2,19.18-17.26,29.56,1.37,1.2,3.46,3.02,8.49,7.41-7.55.64-12.39,2.23-16.45,1.08-4.43-1.25-8.13-5.04-12.15-7.72l8.24-4.79c-23.09-18.78-31.41-47.93-18.33-73.39,4.65-9.05,16.66-14.06,22.87-22.66,5.04-6.98,7.89-16.38,9.14-25.07,2.42-16.88-8.87-34.28,5.08-51.25,14.59-17.75,38.09-17.53,48.85,2.75,14.62,27.55,4.65,64.56-21.33,80.83-2.78,1.74-5.05,6.16-5.41,9.56-1.92,18.52-3.16,37.12-4.63,55.69-2.37-.67-4.75-1.34-7.12-2.01Z"/>
      <path d="m519.55,997.72c-14.73,7.23-27.81,13.28-40.52,20.03-7.71,4.09-12.84,8.51-5.76,18.97,8.33,12.31,1.65,23.76-13.59,24.83,0-3.17-.46-6.36.07-9.37,3.8-21.51,1.07-39.48-20.3-52.08-20.43-12.05-12.66-32.94-9.15-49.62,2.59-12.32,12.94-21.48,28.01-24.57,37.2-7.61,46.77-2.83,59.5,33.5,4.32,12.33,7.53,23.74,26.62,17.46,13.83-4.56,25.79,3.25,28.02,19.88,2.05,15.26-4.77,26.15-19.22,29.29-13.47,2.92-25.25-1.46-29.17-17.21-.9-3.62-2.82-6.98-4.53-11.1Z"/>
      <path d="m1033.78,2085.19c-.32,23.34-10.98,36.15-29.84,35.84-29.88-.5-47.83-17.29-47.52-44.45.22-18.9,16.72-39.35,31.84-39.02,32.54.71,44.29,19.56,45.51,47.63Z"/>
      <path d="m815.89,1328.18c.37-23.74,18.78-43.04,40.62-42.56,21.07.46,35.56,16.93,35.21,40.02-.37,24.28-13.03,36.35-37.82,36.07-26.21-.29-38.35-11.01-38-33.53Z"/>
      <path d="m251.81,2198.46c-9.79-5.49-19.62-15.47-29.36-15.39-14.05.12-16.14-9.13-15.76-16.09.55-10.28,3.61-23.06,10.54-29.35,4.08-3.71,18.96.97,26.7,5.66,10.08,6.1,18.76,15.24,26.32,24.47,3.88,4.73,7.49,14.59,5.15,18.49-4.71,7.85-13.57,13.21-20.72,19.59-.95-2.46-1.91-4.92-2.86-7.38Z"/>
      <path d="m89.23,784.73c-15.21-37.9-13.74-46.12,12.94-64.62,10.77,15.15,42.19,14.12,34.84,43.34-5.81,23.1-15.33,26.1-47.79,21.27Z"/>
      <path d="m976.76,1748.11c.5,15.43-13.23,32.53-26.7,33.25-15.32.81-32.87-14-33.06-27.91-.22-16.52,15.71-33.56,31.86-34.08,16.31-.52,27.32,10.82,27.9,28.74Z"/>
      <path d="m791.61,1963.82c-7.52,5.6-16.41,16.88-22.23,15.47-8.52-2.07-19.53-12.4-20.98-20.7-2.09-11.95,5.85-22.48,21.47-21.93,15.18.54,19.25,9.37,21.74,27.15Z"/>
      <path d="m444.09,2202.91c3.3-18.71,9.09-27.57,24.37-27.65,15.39-.08,14.58,13.78,14.86,20.95.5,12.59-6.45,26.83-20.99,25.4-7.46-.74-13.72-13.73-18.24-18.69Z"/>
      <path d="m870.52,1607.91c-3.42,6.45-6.84,12.9-10.25,19.35-5.19-3.17-10.37-6.35-15.56-9.52,5.59-5.38,11.17-10.75,16.76-16.13,3.02,2.1,6.04,4.2,9.06,6.3Z"/>
      <path d="m130.25,914.24c-4.17-7.49-8.34-14.99-12.87-23.13q16.92-1.36,12.87,23.13Z"/>
      <path d="m192.2,959.68c10.06,11.15,20.11,22.3,30.17,33.45-1.1,1.06-2.2,2.11-3.3,3.17-10.09-11.07-20.18-22.15-30.27-33.23,1.13-1.13,2.26-2.26,3.39-3.4Z"/>
    </g>
  </g>
  <g id="avFXoA.tif-2" data-name="avFXoA.tif">
    <g>
      <path d="m309.59,2539.07c-7.24-1.11-12.19-1.87-17.14-2.63v-3.4c10.97,0,22.05,1.02,32.86-.27,12.6-1.5,25.2-4.27,37.28-8.15,3.24-1.04,7.44-9.58,6.16-12.09-3.05-5.93-8.58-13.72-14.09-14.6-11.5-1.84-18.96-7.44-17.37-17.68,1.7-10.94,12.3-12.74,22.85-12.7,5.87.02,11.67-3.59,17.65-4.46,9.96-1.44,19.12-5.39,29.52,3.88,5.93,5.29,19.6,4.88,28.61,2.52,4.56-1.2,7.37-12.15,9.35-19.16,1.46-5.17.29-11.09.29-15.41-11.61-3.55-21.34-6.52-31.07-9.5.12-2.29.23-4.58.35-6.88,4.48,0,8.96.03,13.43,0,13.98-.1,28.66,5.72,39.77-9.86,8.49-11.9,20.97-20.93,29.65-32.72,4.21-5.71,2.59-15.38,5.71-22.31,6.74-14.96,14.84-29.3,22.98-45.07,3.39,2.2,5.8,4.34,8.63,5.48,5.7,2.3,12.58,6.85,17.18,5.27,5.11-1.76,10.98-9.09,11.42-14.42.44-5.24-4.56-14.79-8.83-15.86-13.42-3.35-9.3-11.18-8.62-18.87,1.72-.39,2.35-.77,2.82-.62,11.49,3.76,21.64,21.71,33.63,11.02,13.74-12.25,19.96-30.7,17.91-50.89-1.87-18.44-3.71-37.34,9-53.64,6.94-8.89,13.15-17.06,26.72-17.25,19.63-.27,29.38-15.76,38.75-30.29,8.73-13.53,16.87-27.44,25.37-41.34,25.27,18.69,28.92,33.28,20.97,65.85-3.12,12.8-2.7,26.53-3.33,39.86-.39,8.24.36,16.53.46,24.8.23,19.29,11.98,25.94,25.2,26.33,12.92-9.01,23.47-16.02,33.64-23.55,12.86-9.53,23.87-3.3,32.47,4.1,17.33-19.88,33.52-37.82,48.92-56.4,7.02-8.47,12.11-18.5,18.79-27.28,4.05-5.32,9.46-9.6,14.25-14.35,2.1,1.67,4.19,3.35,6.29,5.02-5.08,7.86-8.47,18.01-15.52,23.18-30.75,22.53-46.03,56.84-67.47,86.35-2.81,3.86-.31,15.72,3.78,19.54,7.54,7.03,17.56,9.78,28.05,1.81,20.04-15.22,40.7-29.64,61.31-44.08,1.78-1.24,5.18-.16,8.46,1.09-29.25,15.97-52.05,37.68-66.3,67.56-1.59,3.33-3.12,8.47-1.68,11.18,12.55,23.6,24.85,47.44,39.42,69.77,3.95,6.06,15.35,10.07,23.39,10.18,34.18.45,56.08,24.39,81.21,41.45,5.46,3.71,7.19,16.69,6.45,25.03-2.21,24.77-.48,48.67,8.27,72.02,1.16,3.1,2.67,7.07,1.7,9.82-8,22.86,2.31,43.25,8.19,64.19,1.34,4.78,2.89,11.05,6.48,13.41,26.63,17.55,45.95,44.27,81.86,50.47,29.11,5.03,58.07,19.08,76.56,46.61,9.13,13.59,23.63,23.04,25.7,42.01.63,5.81,12.44,12.98,20.28,14.94,24.59,6.16,49.62,10.92,74.71,14.69,16.88,2.53,29.69,27.77,19.53,42.99-5.67,8.5-13.85,15.34-20.76,22.77-5.57-3.63-9.67-6.38-13.84-9.01-12.51-7.88-22.08-16.19-13.79-33.45,6.63-13.8-2.17-20.94-14.58-24.76-5.82-1.79-11.58-4.07-17.55-5.01-21.38-3.38-42.77-6.99-64.3-9.14-18.98-1.9-37.91-.96-53.47-15.88-15.27-14.64-37.75-24.47-47.18-41.78-11.71-21.48-29.28-25.29-47.18-25.92-18.38-.64-36.92,7.27-55.6,10.01-16.53,2.43-25.15,15-36.9,24.08-9.7,7.49-21.92,12.54-33.78,16.23-24.8,7.73-38.41,42.98-27.91,67.75,8.2,19.34,10.71,41.04,16.81,61.37,2.67,8.9,7.98,17.01,12.02,25.33-12.6,4.47-28.87-9.66-33.68-28.77-2.48-9.85-6.59-20.29-12.98-27.95-17.09-20.49-42.41-22.82-63.38-7.01-12.87,9.7-7.76,23.81-6.82,36.32.63,8.37,3.26,16.68,5.76,24.78,7.08,22.91.45,45.79.76,68.66.12,8.9,3.4,18.65,7.95,26.42,9.56,16.31,22.91,30.62,31.03,47.51,9.56,19.9,15.22,41.67,23.86,66.29-35.74-31.88-61.08-66.12-76.93-106.75-4.42-11.33-6.63-24.1-7.06-36.3-.91-25.69-17.32-43.69-29.01-64.12-3.91-6.82-6.64-14.71-11.89-20.24-3.58-3.78-12.89-7.65-15.67-5.73-14.2,9.81-15.33,33.03-5.5,48.27,6.39,9.91,10.32,21.42,15.34,32.21-1.68.96-3.36,1.92-5.04,2.88-4.89-6.44-9.79-12.87-14.65-19.33-10.33-13.72-19.94-28.07-31.3-40.87-4.36-4.91-12.53-8.47-19.23-8.96-37.2-2.7-73.09,3.94-104.58,24.06-7.91,5.05-9.81,19.79-14.06,30.24-7.21,17.71-15.32,33.59-35.66,40.86-6.22,2.22-11.1,12.96-13.18,20.71-2.53,9.44-1.45,19.86,1.34,32,10.23-12.42,20.45-24.83,30.23-36.7,2.78,33.18-23.52,52.53-37.48,78.04-6.04,11.04-10.35,23.38-13.37,35.64-7.27,29.42-12.74,59.29-20.37,88.6-1.39,5.33-9.56,8.9-14.6,13.29-3.01-5.91-9.84-13.05-8.41-17.55,10.21-32.04.51-67.92,22.39-98.37,9.03-12.57,9.29-32.42,10.83-49.2,4.31-47,6.66-94.18,10.96-141.18,1.62-17.74,8.54-35.1,9.24-52.78.64-16.2-2.94-32.8-6.31-48.88-3.45-16.48-19.65-21.69-33.61-11.77-13.83,9.82-27.42,19.97-41.35,29.65-1.2.84-4.11-.77-6.44-1.29,11.66-19.28,21.38-37.76,16.88-61.38-4.16-21.83-4.35-23.54-26.55-23.63-4.87-.02-9.74,0-18.27,0,26.74-11.58,31.79-32.95,19.92-52-2.35-3.77-5.15-7.69-5.97-11.89-4.6-23.67-20.52-31.47-43.28-23.32-21.33,7.64-43.56,12.82-65.47,18.8-20.37,5.56-40.78,10.98-61.3,15.98-10.6,2.58-21.46,4.1-32.79,3.92,52.38-16.58,104.03-33.56,148.97-73.53-9.37-3.48-13.61-5.05-17.78-6.6,7.27-3.14,13.95-7.32,21.18-8.85,11.23-2.37,9.73-10.17,7.48-16.81-.58-1.73-9.51-.78-14.61-.8-3.25-.01-6.5.47-10.37.78v-22.67Zm127.36,178.63c-8.03-9.05-13.56-15.28-19.09-21.52-3.83,3.54-11.41,9.39-10.88,10.26,4.16,6.77,9.46,13.08,15.49,18.29,1.2,1.03,7.02-3.29,14.48-7.02Zm408.06-409.35c-2.25-.08-4.49-.16-6.74-.25-2.05,6.95-6.97,14.82-5.14,20.52,1.21,3.76,12.13,4.4,18.71,6.44,1.14-1.51,2.28-3.02,3.42-4.52-3.41-7.4-6.83-14.79-10.24-22.19Z"/>
      <path d="m81.97,3416.21c.82-.24-3.84,1.35-3.93,1.12-8.9-22.33-31.04-17.58-47.68-24.48-13.5-5.59-24.61-16.69-37.41-24.28-9.51-5.64-19.02-10.52-21.14-22.71-9.12,1.85-18.24,3.71-31.72,6.45-5.97-1.68-17.89-5.04-31.45-8.87,2.33-4.04,5.15-8.95,8.01-13.91-11.66-10.31-31-13.41-35.6-32.36-.74-3.04.24-8.74,2.25-9.83,11.74-6.34,23.97-11.81,36.15-17.31,11.93-5.38,22.41-24.23,18.48-38.54-3.76-13.72-12.82-23.3-29.3-22.08-11.55.85-17.33-3.02-12.95-16.2,1.3-3.93-1.98-9.43-3.35-14.16-1.7-5.88-4.94-11.65-5.15-17.55-.61-17.04-3.69-30.96-23.66-35.88-4.61-1.14-7.68-10.23-10.6-16.09-3.72-7.48-6.88-15.29-9.62-23.19-1.08-3.11-1.1-7-.35-10.25,1.36-5.89,3.66-11.57,5.45-17-11.66-9.47-32.57,4.74-37.61-18.37,3.67.82,6.27,1.26,8.78,1.98,8.03,2.29,19.83,9.16,23.32,6.2,10.55-8.97,19.66-20.8,26.1-33.19,16.48-31.69,27.33-64.99,29.35-101.48.61-11.05,11.09-23.5,20.27-31.72,19.74-17.7,41.15-27.48,69.98-15.41,14.42,6.04,33.47,1.05,51.63,1.05,4.31-11.84-6.47-31.99,18.5-39.66,25.19,29.89,35.45,66.83,40.42,106.31,16.33,5.13,16.5,5.09,40.77-10.23,21.91,10.25,15.35,15.13,46.94-30.25-1.07,10.63-1.28,16.95-2.41,23.11-2.53,13.82-4.71,27.78-8.5,41.27-5.49,19.58,11.65,26.03,20.2,36.16,0,1.93.02,2.49,0,3.06-.34,9.65-24.61,22.26,1.52,27.9,10.53,2.27,23.24-5.94,35.05-9.07,6.6-1.75,13.36-2.88,24.71-5.26-14.07,13.71-24.08,23.47-34.1,33.23,1.42,2.23,2.84,4.45,4.25,6.68,11.23-4.09,22.45-8.18,31.55-11.49,4.67,5.92,8.72,12.97,14.53,17.97,9.48,8.16,7.68,38.08-5.61,47.12-11.06,7.52-11.2,15.67-7.93,26.86,15,1.65,30.9,1.93,41.34,20.54-9.12-3.5-15.35-5.89-19.74-7.58-3,9.08-4.77,15.68-7.35,21.95-5.04,12.28-12.09,24-15.11,36.71-1.29,5.41,5.46,12.73,8.5,19.08-.11.03-1.55.85-2.16.44-10.11-6.79-21.83-14.38-30.88-1.64-8.31,11.7-9.8,26.06-1.28,40.07,6.76,11.12,15.45,22.38-6.86,29.2-12.05,3.68-11.87,16.27-3.95,26.36-5.94,4.12-13.48,6.72-16.33,11.89-4.95,9-10.81,11.29-20.53,10.89-11.67-.49-12.66,6.06-7.2,15.13,5.54,9.21,10.6,18.7,15.87,28.07-1.19.87-2.37,1.74-3.56,2.61-3.29-3.82-6.15-8.18-9.99-11.33-4.96-4.07-10.7-7.19-16.1-10.71-2.42,4.51-3.88,10.13-7.5,13.26-5.43,4.69-12.16,8.08-18.73,11.2-5.29,2.51-12.47,2.33-16.55,5.91-15.95,14-25.29,29.41-15.23,52.6,6.55,15.1,7.4,32.66,10.81,49.12-1.75.58-3.5,1.16-5.25,1.74-9.86-26.34-19.72-52.67-30.37-81.13Z"/>
      <path d="m1515.16,3579.22c-9.38-1.19-12.4-1.58-17.04-2.17,4.57,11.49,7.2,23,13.27,32.27,10,15.28,2.4,19.83-10.87,23.13-2.54.63-4.73,2.72-5.98,3.47-18.24-14.71-35.7-28.76-53.12-42.86-10.89-8.82-14.99-35.02-7.34-46.67,7.62-11.63,2.15-43.66-10.21-51.83-20.91-13.83-25.04-35.36-27.08-57.26-1.52-16.29,27.29-32.46,42.46-26.4,28.98,11.58,40.81,33.07,39.8,63.12-.39,11.79,7.85,24.19-2.98,35.47-1.07,1.11,2.12,6.9,3.99,10.13,10.81,18.62,21.82,37.12,35.1,59.6Z"/>
      <path d="m532.71,2199.2c-7.85,15.01-16.21,30.22-23.82,45.79-5.08,10.39-8.17,19.86,8.38,24.49,15,4.2,16.47,18.21,3.67,33.9-6.69-10.6-14.23-20.23-19.17-31.04-4.9-10.72-11.14-15.46-23.15-14.5-29.47,2.34-40.97-4.82-52.26-29.11-15.25-32.8-12.67-44.23,10.92-67.1,25.71-24.93,39.58-24.93,65.66.02,13.69,13.1,22.37,12.54,36.19.54,9.66-8.39,21.17-15.46,34.86-8.24,12.21,6.45,16.63,23.08,12.23,39.21-3.96,14.5-16.91,19.01-27.81,20.03-7.81.73-16.58-8.67-25.68-13.99Z"/>
      <path d="m1631.92,2882.81c.27-19.32,23.56-41.4,43.26-41.03,24.09.45,55.36,34.33,54.15,58.67-1.07,21.58-26.28,39.55-55.9,39.86-15.06.16-41.81-36.89-41.52-57.49Z"/>
      <path d="m1054.99,2227.65c22.76-.74,25.29,20.85,35.17,33.57,10.46,13.47,5.28,29.13-4.69,39.77-12.21,13.04-26.27,26.5-47.68,20.92-12.22-3.18-27.31-24.4-29.11-41.44-2.7-25.47,21.06-52.58,46.31-52.83Z"/>
      <path d="m1086.29,3529.61c-15.28-14.13-27.57-12.59-41.31,1.72-2.7,2.81-19.36-3.53-25.86-9.62-8.95-8.37-11.47-21.94-3.66-32.57,5.35-7.28,14.57-12.29,23-16.36,2.49-1.2,8.02,5.86,12.45,6.33,10.02,1.06,20.57-1.17,30.24.93,6.82,1.48,16.18,6.76,17.94,12.38,2.55,8.12.08,18.26-1.94,27.16-.79,3.47-6.17,5.89-10.87,10.03Z"/>
      <path d="m-36.6,2247.04c1.89-11.38,5.36-20.96,20.28-19.11,4.42.55,9.08-.36,13.58-.97,23.22-3.12,31.06,2.57,39.46,28.85,3.37,10.54-5.67,27.22-18.63,34.43-8.8,4.89-16.32,6.34-26.85.94-18.83-9.65-25.56-24.91-27.84-44.14Z"/>
      <path d="m1451.91,2614.07c.34,16.18-18.71,36.85-33.61,36.49-17.6-.43-34.97-19.85-35.94-40.19-.48-10.03,23.52-36.88,34.12-38.17,11.87-1.45,35.1,26,35.43,41.87Z"/>
      <path d="m596.78,3414.55c-12.96-9.26-19.91-20.42-11.81-37.26,5.44-11.32,11.15-22.79,25.73-17.95,7.93,2.63,18.47,9.53,20.23,16.45,6.93,27.19-15.13,32.25-34.15,38.77Z"/>
      <path d="m1267.96,3342.97c23.3,7.22,34.3,17.4,32.3,33.58-1.06,8.57-5.13,20.65-11.53,23.92-15.14,7.73-22.05-7.6-29.71-16.83-8.51-10.25-5.39-21.79,8.94-40.67Z"/>
      <path d="m1391.9,2956.08c-15.04-.11-24-8.92-23.97-23.56.03-15.53,9.92-25.99,24.28-25.71,9.8.19,25.66,17.51,25.29,27.61-.52,14.31-9.34,21.78-25.6,21.67Z"/>
      <path d="m98.88,2373.26c6.02-.99,15.72-4.82,17.48-2.53,14.8,19.19,37.13,8.21,54.74,14.98,3.3,1.27,7.21.95,10.63,2.91-28.28,2.82-56.05,1.91-82.36-9.84-.16-1.84-.32-3.68-.48-5.52Z"/>
      <path d="m1243.02,2563.96c-2.61-6.8-7.77-13.94-6.92-20.27.56-4.12,9.59-7.86,15.47-9.96,1.52-.54,8.4,6.55,7.79,8.74-2.14,7.7-6.48,14.79-9.98,22.11-2.12-.21-4.24-.42-6.37-.63Z"/>
      <path d="m207.17,2390.19c19.38,3.21,38.75,6.42,58.13,9.63l-1.25,7.13c-19.24-3.85-38.49-7.7-57.73-11.56.29-1.74.57-3.47.86-5.21Z"/>
      <path d="m277.07,3519.09l23.58,29.78c-1.87,1.47-3.74,2.95-5.6,4.42-8.03-9.78-16.05-19.57-24.08-29.35,2.04-1.62,4.07-3.24,6.11-4.85Z"/>
      <path d="m249.61,2599.09c14.16-3.05,28.31-6.11,42.47-9.16.33,1.68.66,3.35.99,5.03-14.15,3.1-28.3,6.2-42.44,9.29-.34-1.72-.67-3.44-1.01-5.16Z"/>
      <path d="m962.26,2194.48c-7.87,5.72-15.74,11.44-23.61,17.16-1.61-2.19-3.21-4.38-4.82-6.57,7.69-6,15.39-11.99,23.08-17.99,1.78,2.47,3.56,4.93,5.35,7.4Z"/>
      <path d="m299.34,2040.61h-22.88c3.93-7.66,6.69-13.03,11.64-22.68,4.52,9.12,7.13,14.38,11.24,22.68Z"/>
      <path d="m364.54,2831.02c-8.35,5.71-16.7,11.42-25.04,17.13-1.09-1.7-2.17-3.4-3.26-5.1,8.64-5.35,17.28-10.7,25.92-16.05.79,1.34,1.59,2.68,2.38,4.03Z"/>
    </g>
  </g>
</svg>