<?xml version="1.0" encoding="UTF-8"?>
<svg  id="Layer_1" data-name="Layer 1" xmlns="http://www.w3.org/2000/svg" viewBox="0 0 1920 5215">
  <g id="avFXoA.tif">
    <g fill="#E799EA">
      <path d="m71.6,1654.78c1.17,7.27,2.35,14.53,3.84,23.76h-23.38c2.47-8.76,4.59-16.26,6.71-23.76,4.28,0,8.56,0,12.84,0Z"/>
      <path d="m221.96,2600.49c17.48-27.09,23.33-74.07,8.24-99.35-2.76-4.63-11.07-7.29-17.21-8.22-9.03-1.36-18.42-.35-28.57-3.1,3-1.2,6.11-2.18,8.99-3.63,15.9-8.05,23.08-26.54,16.46-42.81-5.01-12.29-10.11-24.56-15.65-36.62-10.73-23.37-37.82-28.31-59.1-14.35-12.05,7.9-27.91,10.23-42.26,14.34-40.01,11.45-79.98,23.08-120.3,33.36-10.2,2.6-21.63.39-32.43-.71,78.39-21.57,168.5-66.98,179.72-92.83-5.39-2.07-10.72-4.12-17.2-6.62,2.76-1.27,4.42-2.19,6.18-2.82,9.03-3.27,19.49-4.69,26.59-10.35,4.24-3.38,3.23-13.37,4.58-20.38-4.97-.71-10.04-2.38-14.88-1.85-5.02.54-9.82,3.21-17.21,5.84,4.94-24.17-6.96-30.51-25.09-33.67,14.61,0,29.36,1.24,43.8-.33,15.73-1.71,31.68-4.65,46.48-9.97,5.02-1.81,11.16-14.52,9.21-18.73-3.68-7.95-11.86-16.25-20.01-19.07-10.42-3.59-25.52-2.08-23.8-16.94,1.77-15.26,16.29-16.65,29.93-16.72,6.69-.04,13.31-4.73,20.04-4.96,12.92-.45,25.89.97,38.86,1.27,14.32.33,31.62,5.15,42.04-1.18,8.13-4.94,7.74-23.94,10.87-35.68-18.16-4.4-31.42-7.61-46.85-11.34,5.12-8.06,8.34-13.13,8.88-13.98,13.55,2.1,24.4,5.26,35.13,4.88,6.04-.21,12.31-5.68,17.71-9.79,10.45-7.94,21.8-15.38,30.14-25.25,9.74-11.54,17.55-22.9,19.05-41.28,1.58-19.42,18.03-37.62,28.91-58.11,6.46,3.95,10.23,6.75,14.4,8.71,12.24,5.73,23.58,5.16,31.11-7.47,7.79-13.06,1.09-21.76-9.34-30.17-6.05-4.88-9.81-12.62-17.27-22.68,9.84,0,12.47-.83,13.96.12,36.14,23.15,55.23,14.03,60.13-30.29,1.86-16.82.04-34.04.05-51.07.01-27.29,19.51-49.39,46.19-52.61,27.15-3.27,38.29-24.39,50.61-44.73,8.9-14.68,19.26-28.47,28.71-42.29,27.2,15.07,37,32.21,28.15,59.13-11.21,34.1-8.83,67.08-.66,100.37,2.27,9.27,8.47,23.03,15.1,24.47,9.61,2.08,21.79-3.98,31.88-8.69,14.66-6.85,28.42-15.63,42.63-23.46,1.13-.62,3.13-.82,4.18-.23,35.37,19.69,38.33-17.27,54.25-31.25,6.29-5.52,11.9-11.99,17.02-18.65,11.05-14.38,21.06-29.59,32.57-43.57,5.23-6.34,13.02-10.57,19.65-15.75,2.14,2.36,4.28,4.72,6.42,7.08-16.1,17.46-33.45,33.94-47.99,52.62-20.51,26.36-39.66,53.89-57.51,82.11-2.81,4.45,2.94,20.91,7.11,21.91,10.97,2.65,25.41,3.66,34.61-1.52,27.01-15.22,52.06-33.91,78.14-50.83,3.01-1.95,7.66-1.35,12.32-.56-31.78,22.19-65.59,41.88-81.31,79.64-2.23,5.36-4.23,13.36-1.85,17.67,14.83,26.84,29.31,54.19,47.48,78.71,6.48,8.74,22.7,13.35,34.87,14.19,39.52,2.74,70.81,23.26,99.34,46.65,9.75,7.99,13.21,28.83,12.4,43.39-1.46,26.25,3.7,50.41,11.43,74.8,2.07,6.53,2.91,14.17,1.77,20.87-7.6,44.74,9.84,77.65,46.56,101.92,20.6,13.62,40.17,29.38,62.19,40.1,16.55,8.06,36.35,9.28,54.53,14.18,31.57,8.5,52.57,31.4,72.95,54.89,5.83,6.72,13.5,13.33,15.87,21.32,7.01,23.69,24.87,28.77,45.78,32.63,14.14,2.61,27.36,9.83,41.33,13.77,11.83,3.34,24.07,6.25,36.27,7.03,18.07,1.16,34.48,12.79,35.99,27.82,1.74,17.29-13.4,40.24-29.07,44.1-20.35,5-46.3-21.89-40.53-42.02,5.97-20.85.5-25.6-19.21-32.85-19.75-7.26-43.28-1.29-60.29-18.44-3.24-3.26-12.4-1.83-18.54-.83-41.75,6.81-78.77.84-109.77-31.98-16.92-17.91-36.9-33.64-57.64-47.04-22.69-14.67-49.55-20.33-76.09-13.8-32,7.88-63.29,15.96-87.56,43.8-13.3,15.26-39.1,18.97-57.66,30.47-18.63,11.55-25.81,33.36-21.08,52.14,10.83,43.01,26.72,84.75,40.72,127.49-1.19-.11-10.01,1.6-12.34-1.54-11.37-15.27-23.78-30.76-30.5-48.23-7.54-19.59-20.48-33.65-38.18-38.68-21.92-6.24-46.91-3.92-61.46,16.4-6.44,8.99-5.65,25.93-3.01,38.15,8.19,37.99,13.36,75.6,12.22,114.92-.45,15.53,16.73,31.38,25.28,47.41,19.65,36.88,38.92,73.95,55.42,112.58-38.51-32.81-79.11-63.32-95.26-113.28-5.14-15.88-5.31-33.65-11.95-48.7-11.8-26.76-26.51-52.26-40.61-77.97-5.95-10.86-12.81-21.38-20.58-30.99-2.41-2.98-10.61-4.94-13.64-3.14-15,8.95-19.8,43.47-9.86,58.78,7.81,12.02,14.49,24.78,21.67,37.22-2.25,1.59-4.5,3.19-6.75,4.78-11.24-13.87-22.3-27.89-33.77-41.56-14.34-17.09-28.05-35.94-53.1-37.01-45.64-1.94-89.17,6.91-128.92,30-5.15,2.99-7.6,11.66-10.02,18.17-10.83,29.06-21.91,56.81-55.5,68.38-15.56,5.36-19.77,41.14-8.6,65.49,6.57-7.45,12.72-13.71,18.01-20.62,5.55-7.23,10.28-15.09,17.21-25.4,7.05,27.6-3.73,49.74-19.56,63.07-37.28,31.37-37.34,74.68-46.69,115.95-5.87,25.88-15.79,50.89-24.71,75.99-1.39,3.91-7.69,9.12-10.85,8.58-3.84-.65-7.07-6.53-9.93-10.59-1.54-2.18-2.86-5.48-2.41-7.94,6.05-33.76,11.85-67.59,18.9-101.15,5.61-26.72,15.65-52.77,18.8-79.7,7.66-65.42,12.47-131.18,18.41-196.81,2.34-25.86,7.22-50.91-4.2-77.28-4.77-11.02,3.26-28.81-14.3-34.22-8.58-2.65-20.54-2.93-28.02,1.13-20.09,10.92-38.6,24.76-57.74,37.44Zm43.62-99.89c-1-14.41-2.41-28.54-19.22-32.19-3.14-.68-12.97,10.05-12.07,13.58,3.39,13.38,8.56,27.96,31.29,18.6Zm514.89-512.06c-1.92-.63-3.84-1.25-5.75-1.88-3.38,8.81-6.75,17.62-10.13,26.43,8.24,2.58,16.47,5.17,24.71,7.75,1.43-1.98,2.85-3.95,4.28-5.93-4.37-8.79-8.74-17.58-13.11-26.37Z"/>
      <path d="m-160.09,3349.17c2.13,0-5.3,1.22-5.83-.18-9.9-26.16-35.82-19.76-54.52-28.02-24.06-10.62-47.27-23.16-70.8-34.98-1.11-.56-1.74-2.16-2.5-3.34-16.25-25.23-20.42-25.61-36.77-5.89-16.41-2.64-31.18-5.01-48.87-7.85,3.66-6.39,7.4-12.91,9.37-16.36-15.7-12.61-31.53-24.47-46.02-37.78-2.58-2.37-1.68-14.01,1.18-15.88,13.2-8.6,27.24-16.27,41.79-22.31,15.87-6.59,28.79-25.67,26.88-43.46-1.58-14.73-17.99-28.01-35.77-28.57-11.28-.35-22.78.82-16.98-17.23,1.35-4.21-3-10.27-4.76-15.46-3.74-11.06-10.09-21.98-10.65-33.19-.83-16.66-9.78-24.42-22.2-32.84-8.64-5.86-14.18-16.46-20.58-25.32-1.42-1.97.5-7.04-1.01-8.17-16.3-12.25-10.34-27.81-8.45-43.76,1.63-13.7-10.22-11.98-19.52-12.83-9.58-.88-19.02-3.38-28.51-5.17l1.91-7.83c3.64.98,7.28,1.96,10.92,2.93,27.45,7.29,49.65-6.47,61.1-32.93,17.46-40.34,30.74-80.82,36.04-125.2,5.38-45.02,67.81-72.34,111.45-58.14,19.13,6.23,41.97,1.05,64.13,1.05,7.61-17.13-7.37-43.81,24.79-53.35,28.05,37.78,49.1,80.02,55.62,135.12,17.15-5.55,33.54-10.85,53.65-17.36,22.31,9.24,15.41,18.71,53.65-34.27-.84,8.22-1.49,16.46-2.56,24.65-1.73,13.13-5.33,26.22-5.32,39.33.02,32.2.67,32.2,25.7,53.27-2.83,5.04-6.84,10.06-8.53,15.76-1.81,6.12-1.42,12.89-1.99,19.37,6.69.36,13.79,2.34,20.01.78,19.31-4.84,38.29-11.02,58.7-13.26-11.73,11.44-23.46,22.87-35.19,34.31,1.89,2.76,3.77,5.52,5.66,8.28,14.79-5.73,29.58-11.46,41.13-15.93,7.91,8.9,14.85,17.5,22.62,25.26,9.81,9.79,3.98,46.17-9.8,58.22q-12.92,11.3-8.79,28.68c18.47,1.55,38.21,1.73,50.36,24.44-11.02-3.89-18.98-6.7-23.31-8.22-4.42,11.74-6.17,20.41-10.58,27.39-13.84,21.89-15.27,53.93-1.58,69.17-2.38.21-5.2,1.34-6.26.42-11.88-10.32-27.58-16.51-36.08-1.85-6.6,11.39-5.66,29.5-2.68,43.48,3.22,15.1,22.48,28.96-7.76,39.03-8.63,2.87-21.5,19.24-14.83,24.95-4.88,9.48-8.24,20.35-15.19,27.94-4.64,5.06-14.24,6.71-21.88,7.63-13.5,1.61-15.3,8.46-9.49,18.5,6.2,10.71,13.69,20.68,17.98,34.25-4-3.21-8.34-6.08-11.93-9.7-16.12-16.27-20.84-14.57-32.11,4.97-3.71,6.44-15.68,10.29-24.34,11.29-25.13,2.91-48.38,33.74-40.8,57.65,5,15.79,13.22,30.59,17.78,46.47,2.52,8.77.45,18.85-2.46,30.25-3.31-6.05-7.04-11.9-9.86-18.17-11.35-25.25-22.41-50.63-35.38-80.03Z"/>
      <path d="m1642.99,3572.63c-18.26-9.27-36.44-18.69-54.81-27.74-11.1-5.47-39.55-51.16-33.41-60.78,8.14-12.74,5.18-25.35,8.45-37.37,4.67-17.17.3-27.45-12.33-37.45-4.26-3.38-6.73-9.02-13.14-17.98,1.05-.08-8.02,1.61-8.39.49-6.33-19.56-14.53-39.24-16.07-59.38-1.03-13.53,27.38-32.1,41.07-31.84,21.64.41,64.02,38.66,63.56,62.28-.38,19.57,11.04,39.94-2.3,59.54-1.81,2.66,3.45,11.09,6.68,16.04,5.76,8.83,13.55,16.45,18.55,25.64,7.67,14.09,13.69,29.07,21.2,45.4-5.6-.53-9.36-.88-15.97-1.5,6.15,13.13,10.13,25.73,17.33,36.09,11.7,16.83,5.14,23.78-11.49,28.11-3.88,1.01-7.3,3.8-10.94,5.76.67-1.77,1.34-3.53,2-5.3Z"/>
      <path d="m379.21,1865.8c-10.22,21.06-20.15,40.41-28.99,60.23-4.2,9.41-3.38,17.12,9.47,21.08,22.9,7.06,25.71,21.97,9.04,40.89-1.33-.42-3.52-.53-3.85-1.36-13.83-35-36.43-53.16-77.07-51.09-37.58,1.91-69.6-66.23-44.42-96.8,6.63-8.05,13.01-16.44,20.54-23.57,21.7-20.54,40.23-21.32,66.35-3.95,5.8,3.86,11.83,7.37,17.83,10.9,15.03,8.84,27.48,16.93,40.78-5.98,6.35-10.94,25.37-18.46,41.17-8.05,14.03,9.24,22.68,21.06,20.79,40.25-2.09,21.2-17.04,28.65-32.66,33.04-7.4,2.08-17.68-5.67-26.52-9.28-4.31-1.75-8.33-4.21-12.44-6.33Z"/>
      <path d="m1796.79,2663.59c-.07-25.64,26.24-51.91,52.71-52.63,33.02-.9,68.92,36.4,68.84,71.53-.05,23.05-36.35,47.5-70.05,47.18-21.89-.21-51.43-38.1-51.5-66.08Z"/>
      <path d="m1042.86,1887.11c24.6.1,55.9,33.61,54.97,58.86-.64,17.5-41.71,54.84-60.12,54.67-21.51-.2-52.64-33.41-53.26-56.84-.72-26.93,30.05-56.8,58.41-56.69Z"/>
      <path d="m1118.93,3449.07c-14.74,2.52-33.01.51-43.42,8.61-16.65,12.95-29.93,3.91-36.98-4.51-8.18-9.77-13.96-28.29-10.13-39.31,3.29-9.47,21.79-19.43,33.15-18.98,17.76.71,34.41,11.52,54.22,5.03,4.98-1.63,17.78,7.75,20.25,14.53,3.15,8.66.62,20.09-1.79,29.75-1.1,4.41-7.75,7.44-11.88,11.1-1.14-2.07-2.28-4.14-3.42-6.21Z"/>
      <path d="m1559.33,2342.79c-.45,17.3-24.63,42.03-41.28,42.19-22.88.23-45.49-23.3-45.43-47.29.04-17.69,26.76-43.92,44.53-43.73,16.6.18,42.66,30.35,42.18,48.82Z"/>
      <path d="m497.45,3331.71c-25.41-23.39-28.13-46.46-8.59-62.89,9.14-7.69,38.16-3.73,46.13,7.41,9.33,13.03,9.35,27.4-3.54,37.62-9.6,7.61-21.97,11.73-34,17.86Z"/>
      <path d="m1387.88,3272.46c-2.91,10.49-3.65,25.58-23.89,24.89-17.02-.58-33.84-18.16-33.13-36.24.58-14.6,5.76-27.11,21.98-28.95,17.56-1.99,35.05,17.53,35.03,40.3Z"/>
      <path d="m1494.87,2757.98c-19.62.07-31.6-10.45-31.71-27.85-.11-16.02,12.86-29.25,28.87-29.43,15.14-.18,32.48,14.64,32.97,28.16.65,17.97-10.82,29.05-30.13,29.12Z"/>
      <path d="m1321.85,2265.19c-10.15,9.89-16.88,16.46-23.62,23.04-6.2-6.75-17.72-13.93-17.23-20.16.59-7.49,10.34-16.52,18.27-20.12,3.38-1.53,12.23,9.01,22.58,17.24Z"/>
      <path d="m40.56,2121.56c-23.2-3.91-46.39-7.83-69.59-11.74.23-2.05.46-4.09.69-6.14,23.33,2.86,46.66,5.72,69.99,8.58-.36,3.1-.73,6.2-1.09,9.3Z"/>
      <path d="m115.01,3512.79c-10.06-13.52-20.13-27.04-30.19-40.56,2.58-1.89,5.16-3.79,7.75-5.68,10.14,13.42,20.28,26.84,30.42,40.25l-7.97,5.98Z"/>
      <path d="m924.97,1841.22c-11,24.66-12.34,25.75-32.05,24.98,8.1-12.5,8.33-33.15,32.05-24.98Z"/>
      <path d="m87.76,2349.62c-17.62,4.05-35.24,8.11-52.86,12.16l-1.44-6.24c17.66-4.22,35.33-8.43,52.99-12.65.44,2.24.87,4.48,1.31,6.73Z"/>
      <path d="m185.92,2631.38c-10.38,7.21-20.76,14.41-31.14,21.62-1.38-2.13-2.76-4.27-4.14-6.4,10.78-6.63,21.57-13.26,32.35-19.89.98,1.56,1.95,3.11,2.93,4.67Z"/>
    </g>
  </g>
  <g id="avFXoA.tif-2" data-name="avFXoA.tif">
    <g fill="#A9EA99">
      <path d="m2431.07,1320.17c-19.06-22.02-38.35-43.86-57.12-66.12-15.37-18.23-14.31-42.46-22.32-63.25-8.21-21.31-20.67-41.02-31.74-61.18-4.68-8.52-10.07-16.77-16.16-24.31-1.9-2.35-8.32-3.9-10.72-2.5-11.48,6.74-15.37,34.39-7.79,46.08,6.13,9.44,11.39,19.44,17.04,29.19l-5.29,3.75c-8.83-10.86-17.5-21.84-26.51-32.55-11.27-13.39-22.02-28.19-41.71-29.03-35.85-1.53-70.05,5.39-101.28,23.5-4.05,2.35-5.98,9.13-7.89,14.23-8.51,22.78-17.18,44.57-43.58,53.63-12.21,4.19-15.55,32.2-6.58,51.92,9.44-12.1,18.01-23.1,27.71-35.55,5.32,20.55-3.16,37.88-15.6,48.35-29.78,25.07-29.46,59.66-36.79,92.58-4.4,19.77-12.32,38.79-19.3,57.92-1.13,3.08-6.02,7.17-8.51,6.76-3-.49-5.56-5.1-7.82-8.28-1.21-1.7-2.26-4.29-1.91-6.22,4.75-26.48,9.3-53,14.83-79.32,4.41-20.95,12.31-41.38,14.79-62.49,6.02-51.3,9.79-102.86,14.46-154.32,1.84-20.28,5.69-39.93-3.3-60.59-3.75-8.64,2.61-22.59-11.21-26.85-6.75-2.08-16.14-2.34-22.02.84-15.79,8.56-30.33,19.42-46.53,28.43,16.06-20.98,15.28-44.1,11.24-67.63-1.92-11.18-7.32-18.29-20.45-16.25-5.99.93-12.25.16-19.12-1.93,2.34-.94,4.77-1.72,7.02-2.85,12.5-6.3,18.17-20.8,12.97-33.55-3.93-9.64-7.94-19.26-12.29-28.71-8.43-18.34-29.72-22.25-46.43-11.31-9.47,6.2-21.91,8.04-33.18,11.26-31.43,8.98-62.84,18.09-94.51,26.14-8.02,2.04-17.01.31-25.5-.53,62.41-17.34,132.33-52.5,141.19-72.77-4.22-1.63-8.39-3.24-13.49-5.21,2.12-.99,3.41-1.72,4.79-2.22,7.09-2.56,15.31-3.68,20.89-8.11,3.34-2.65,2.56-10.47,3.63-15.96-3.9-.57-7.88-1.91-11.67-1.5-3.96.43-7.75,2.55-13.9,4.75,5.12-19.93-6.33-22.87-19.35-26.56,11.47,0,23.04.97,34.37-.26,12.36-1.34,24.89-3.64,36.52-7.81,3.95-1.42,8.8-11.37,7.27-14.66-2.89-6.23-9.3-12.75-15.7-14.97-8.17-2.83-20.06-1.62-18.73-13.26,1.36-11.96,12.76-13.09,23.49-13.14,5.25-.02,10.46-3.68,15.75-3.87,10.15-.36,20.34.72,30.52.96,11.26.26,24.84,4.07,33.03-.88,6.4-3.86,6.11-18.77,8.58-27.99-14.26-3.44-24.68-5.96-36.8-8.88,4-6.32,6.52-10.29,6.92-10.94,10.65,1.63,19.18,4.08,27.6,3.78,4.75-.17,9.68-4.43,13.93-7.64,8.22-6.22,17.12-12.06,23.68-19.8,7.66-9.04,13.83-17.92,14.98-32.36,1.22-15.22,14.15-29.51,22.69-45.57,5.07,3.07,8.04,5.25,11.31,6.79,9.61,4.51,18.5,4.08,24.44-5.81,6.15-10.25.9-17.07-7.29-23.67-4.72-3.8-7.67-9.8-13.67-17.81,7.78,0,9.85-.65,11.02.1,28.45,18.14,43.4,11.04,47.26-23.7,1.47-13.19.03-26.69.04-40.05,0-21.42,15.32-38.79,36.26-41.28,21.35-2.54,30.1-19.09,39.78-35.05,6.98-11.52,15.12-22.34,22.54-33.17,21.38,11.75,29.1,25.22,22.16,46.32-8.79,26.73-6.97,52.6-.54,78.7,1.79,7.27,6.63,18.08,11.84,19.21,7.55,1.65,17.13-3.09,25.06-6.79,11.52-5.37,22.32-12.27,33.48-18.41.88-.49,2.46-.65,3.28-.19,27.82,15.53,30.11-13.55,42.63-24.48,4.95-4.32,9.34-9.41,13.37-14.62,8.69-11.27,16.56-23.19,25.6-34.16,4.11-4.98,10.22-8.31,15.42-12.38l5.06,5.55c-12.63,13.69-26.25,26.62-37.66,41.26-16.11,20.67-31.16,42.25-45.19,64.37-2.21,3.49,2.28,16.39,5.55,17.19,8.61,2.09,19.96,2.91,27.19-1.15,21.22-11.93,40.9-26.58,61.39-39.86,2.36-1.53,6.01-1.09,9.67-.49-24.88,17.48-51.49,32.84-63.82,62.44-1.75,4.2-3.35,10.48-1.49,13.85,11.65,21.05,23.03,42.48,37.3,61.72,5.09,6.86,17.82,10.5,27.38,11.15,31.05,2.14,55.64,18.23,78.05,36.56,7.66,6.26,10.4,22.59,9.77,34.01-1.14,20.58,2.89,39.53,8.97,58.65,1.63,5.12,2.29,11.11,1.41,16.36-5.9,35.04,7.68,60.9,36.56,79.92,16.19,10.67,31.55,23.04,48.85,31.45,13,6.32,28.56,7.26,42.85,11.11,24.78,6.68,41.31,24.62,57.32,43.04,4.58,5.27,10.61,10.45,12.47,16.71,5.5,18.55,19.5,22.6,35.95,25.61,11.11,2.04,21.5,7.69,32.47,10.79,9.29,2.62,18.91,4.91,28.49,5.52,14.2.91,27.11,10.01,28.31,21.78,1.38,13.59-10.45,31.54-22.81,34.6-15.98,3.96-36.41-17.13-31.88-32.91,4.92-17.14,1.34-21.2-16.88-25.57-15.38-3.69-30.06-10.22-45.26-14.81-4.6-1.39-10.03-1.3-14.85-.52-32.79,5.33-61.89.68-86.25-25.04-13.3-14.04-29-26.36-45.28-36.89-17.82-11.54-38.92-15.96-59.77-10.84-25.13,6.18-49.73,12.5-68.8,34.32-10.46,11.97-30.69,14.91-45.29,23.9-14.68,9.05-20.28,26.18-16.59,40.87,8.48,33.73,20.98,66.46,31.98,99.99-.91-.08-7.84,1.28-9.67-1.17-8.93-11.97-18.69-24.12-23.98-37.81-5.92-15.35-16.07-26.42-29.97-30.35-17.2-4.87-36.87-3.19-48.29,12.82-5.05,7.08-4.47,20.33-2.4,29.91,6.46,29.79,10.47,59.28,9.6,90.11-.34,12.19,13.13,24.61,19.84,37.18,15.45,28.96,30.62,58.08,45.9,87.13-2.42,1.2-4.85,2.4-7.27,3.61Zm-422.73-338.06c-7.95-8.59-13.47-14.57-19-20.54-3.63,3.58-10.9,9.47-10.32,10.38,4.17,6.56,9.54,12.57,15.53,17.57,1.12.93,6.73-3.5,13.79-7.41Zm405.26-370.56c1.59-1.51,3.17-3.01,4.76-4.52-3.67-7.37-7.34-14.74-11.01-22.11-1.71.16-3.42.33-5.14.49-2.06,6.89-5.66,13.86-5.28,20.6.12,2.15,10.81,3.71,16.66,5.54Z"/>
      <path d="m1801.03,1550.61c-4.25,7.81-6.93,17.42-13.22,22.89-5.43,4.72-14.96,4.73-27.11,8.03,6.24,11.89,12.54,23.9,18.84,35.9-.41.71-.81,1.41-1.22,2.12-3.89-3.55-7.74-7.15-11.66-10.65-11.94-10.66-16.84-8.68-22.73,5.53-2.04,4.93-10.18,8.93-16.24,10.34-31.35,7.3-42.47,26.87-32.05,58.34,4.83,14.57,9.8,29.1,14.71,43.64-2.07.84-4.13,1.68-6.2,2.52-3.5-7.85-6.91-15.75-10.54-23.54-3.99-8.56-8.31-16.96-12.24-25.55-3.63-7.92-6.93-16-11.63-26.93,1.7-.1-4.15,1.12-4.54.15-8.29-20.49-28.6-16.56-44.06-22.84-18.62-7.56-36.22-17.62-54.18-26.74-1.32-.67-2.18-2.44-3.01-3.84-11.33-19.36-15.14-19.6-29.04-3.88-13.04-2.13-24.62-4.02-38.2-6.24,2.84-5.01,5.57-9.82,7.37-12.99-11.96-9.62-24.71-19.2-36.41-29.93-1.89-1.74-.68-11.09,1.75-12.56,11.06-6.68,22.93-12.07,34.75-17.4,11.53-5.19,22.85-24.06,18.4-35.8-4.54-11.97-12.62-21.88-28.3-20.37-9.74.94-17.04-.8-12.53-13.99,1.08-3.15-2.85-7.92-4.23-12.02-2.93-8.67-7.61-17.3-8.1-26.13-.73-13.14-8.07-18.83-17.95-25.27-6.77-4.41-10.89-13.13-15.6-20.31-2.52-3.83-4.26-8.36-5.5-12.8-1.49-5.33-3.95-11.38-2.71-16.29,3.91-15.45.66-20.29-15.16-21.08-7.3-.37-14.51-2.6-21.75-3.98l.94-5.53c2.77.31,5.65.24,8.3.99,22.88,6.44,39.31-3.75,48.98-25.75,13.9-31.62,23.65-63.53,28.37-98.14,4.87-35.67,52.34-55.74,87.83-44.73,15.14,4.69,32.95.78,50.16.78,5.1-14.36-5.58-34.82,19.34-42.1,22.58,29.24,36.14,63.19,43.97,102.16,14.4,6.85,26.15-3.57,37.82-11.73,22.58,10.61,16.16,14.62,46.94-29.62-1.39,11.24-2.13,17.86-3.05,24.44-1.35,9.74-4.11,19.48-4,29.19.3,26.09.78,26.08,19.25,42.55.01,1.11.3,2.31-.03,3.3-2.61,7.93-5.33,15.83-8.01,23.73,8-.93,16.07-1.5,24-2.88,12.82-2.23,25.55-5,41.08-8.09-11.58,10.82-20.87,19.52-30.17,28.21,1.38,2.35,2.76,4.69,4.14,7.04,11.85-4.44,23.7-8.88,32.67-12.23,5.99,6.91,10.81,13.6,16.76,19.06,7.81,7.17,5.26,34.6-4.8,44.27-3.09,2.97-7.42,5.29-9.16,8.88-4.24,8.75-4.75,16.06,8.77,16.8,16.55.91,24.64,6.48,28.28,17.54-5.84-2.41-11.63-4.8-15.16-6.26-3.82,9.49-5.84,17.12-9.73,23.64-10.7,17.9-11.15,40.67,1.03,52.12-2.9.27-5.52,1.31-6.46.47-9.41-8.4-21.49-12.38-28.26-.96-5.07,8.56-3.24,21.75-2.71,32.8.24,5.05,6.55,9.82,6.78,14.87.22,4.66-2.77,12.02-6.48,13.86-13.91,6.86-19.13,15.42-17.08,22.98Z"/>
      <path d="m1567.38,593.53c-6.66-5.09-12.35-11.05-19.29-14.41-15.01-7.26-24.9-25.57-18.6-40.47,2.19-5.17,9.23-9.31,14.98-11.66,5.41-2.21,12.06-2.1,18.13-1.88,24.41.87,26.91.63,35.22,26.08,4.87,14.92-4.29,23.41-14.41,31.31-5.05,3.94-10.56,7.3-16.03,11.04Z"/>
      <path d="m1748,676.81c-27.91-1.5-55.81-2.99-83.72-4.49-.26-3.23-.53-6.46-.79-9.69,6-1.09,15.8-4.96,17.37-2.82,11.13,15.2,26.5,10.97,41.03,11.1,8.73.08,17.46.01,26.19.01-.03,1.96-.06,3.92-.09,5.89Z"/>
      <path d="m1315.03,1480.08h-72.33c-.01-.62-.02-1.25-.03-1.87h72.32c.01.62.02,1.25.04,1.87Z"/>
      <path d="m1772.74,676.12c18.38,2.29,36.77,4.59,55.15,6.88-.3,2.28-.6,4.56-.9,6.84-18.15-2.86-36.31-5.73-54.46-8.59.07-1.71.14-3.42.2-5.13Z"/>
      <path d="m1885.28,1781.09c-7.87-10.61-15.74-21.22-23.61-31.83,2.03-1.47,4.05-2.94,6.08-4.41,7.95,10.54,15.9,21.08,23.86,31.61-2.11,1.54-4.21,3.09-6.32,4.63Z"/>
      <path d="m1821.66,873.3c13.8-3.09,27.6-6.18,41.4-9.26.33,1.67.67,3.33,1,5-13.85,2.97-27.7,5.94-41.55,8.92-.28-1.55-.56-3.1-.85-4.65Z"/>
      <path d="m1855.89,343.06h-21.57c4.01-7.55,6.91-12.99,11.96-22.49,4.15,9.7,6.45,15.1,9.62,22.49Z"/>
      <path d="m1913.31,1101.3c8.34-4.99,16.67-9.97,25.01-14.96.78,1.21,1.56,2.41,2.33,3.62-8.02,5.69-16.05,11.38-24.07,17.07l-3.27-5.73Z"/>
    </g>
  </g>
  <g id="avFXoA.tif-3" data-name="avFXoA.tif">
    <g fill="#E2D560"> 
      <path d="m2458.56,4456.37c-2.12-17.78-12.5-30.34-3.79-48.39,17.78-36.85-6.63-65.67-44.63-65.2-7.4.09-17.32,9.21-21.52,16.71-16.21,29.01-26.87,61.01-51.55,85.33-5.48,5.4-4.22,17.88-5.59,27.17-4.71,31.91-8.93,63.9-13.94,95.77-1.96,12.45-5.53,24.64-8.71,38.43-1.4-2.52-3.31-4.39-2.94-5.53,8.5-26.63-4.81-52.72-2.04-78.86,2.65-25.09,4.81-51.42,14.2-74.32,14.76-35.98,16.17-73.31,19.8-110.58,1.04-10.64-4.84-15.24-18.07-10.43-20.69,7.52-26.29,21.27-25.52,41.15.26,6.66-2.89,13.46-4.49,20.2-1.96-.07-3.92-.13-5.87-.2,0-14.83-.17-29.67.04-44.5.35-25.58-7.46-46.07-32.46-57.66-12.67-5.88-24.22-14.12-36.67-20.55-33.45-17.28-61.14-1.01-89.45,14.9-7.29,4.1-17.91,5.01-26.41,3.66-24.19-3.84-37.25,4.36-45.64,34.55,15.25-4.28,28.63-8.04,42.01-11.8,1.07,2.07,2.14,4.14,3.2,6.21-15.36,8.1-29.9,19.48-46.26,23.53-25.28,6.26-46.51,14.46-64.68,35.43-16.76,19.33-40.17,32.99-61.21,48.4-3.89,2.85-10.38,2.13-17.94,3.45.73-7.71-.82-15.13,2.06-17.83,20.81-19.56,42.56-38.11,63.92-57.09,17.76-15.79,36.48-30.68,52.83-47.83,35.83-37.57,71.26-75.59,105.13-114.92,13.81-16.04,24.46-35.28,34.07-54.31,7.69-15.23-2.68-28.55-20.38-29.64-14.17-.88-28.34-1.81-41.98-2.68,12.76-15.6,23.57-28.74,34.3-41.95,17.56-21.61-.7-30.86-15-40.55,11.83-3.56,28.93-3.74,32.45-10.75,8.24-16.41,12.03-35.97,13.19-54.53.39-6.24-11.46-15.98-19.69-19.55-34.78-15.08-70.31-28.41-105.54-42.45-13.99-5.57-27.98-11.17-41.85-17.02-7.12-3-13.99-6.59-20.61-12.18,20.74,6.67,41.21,14.47,62.3,19.73,29.88,7.46,60.08,14.02,90.46,19,13.08,2.14,21.28-3.93,14.38-12.57,9.27-1.87,20.92-4.21,32.57-6.55-4.6-6.23-9.19-12.45-15.8-21.4.48-3.49,1.65-11.93,2.68-19.43,19.14,9.57,40.94,20.46,62.73,31.35,2.57-2.34,5.14-4.68,7.7-7.02-5.1-14.97-10.19-29.94-15.33-45.02,12.15-5.81,43.93,1.53,56.18,14.27,4.39,4.57,7.82,10.06,11.76,15.08,21.16,26.97,35.59,25.29,49.7-3.5-7.57-10.14-14.42-19.31-21.27-28.47,1.53-1.57,3.06-3.15,4.6-4.72,7.81,6.27,15.54,12.64,23.45,18.78,11.4,8.85,62.82,4.75,73.76-3.92,15.97-12.66,33.27-23.62,53.15-37.51,2.3,9.94,2.02,15.04,3.99,16.15,7.67,4.34,16.06,7.42,24.18,10.96,2.22-7.31,5.11-14.51,6.44-21.98.9-5.07-.37-10.53-.78-17.7,11.06,12.19,21.94,29.9,26.7,28.38,15.85-5.05,32.68-14.36,43.21-26.98,13.16-15.79,23.18-33.43,45.24-37.65,5.46-1.04,13.78-3.46,16.33-.86,23.85,24.3,46.2,3.25,68.76-1.62,11.08-2.39,21.57-7.51,32.11-11.31,11.8,23.06,3.66,41.06-11.29,51.08-30.44,20.41-43.62,50.68-58.19,87.77,13.68,2.25,26.45,3.71,38.9,6.56,16.07,3.68,36.73-1,42.72,24.59,39.88-9.31,78.87-18.42,117.86-27.52.59,1.76,1.18,3.52,1.77,5.28-5.53,2.72-11.06,7.76-16.59,7.77-37.25.08-70.96,13.58-104.68,26.77-6.01,2.35-15.45,10.39-14.61,13.12,2.57,8.35,7.86,19.38,14.87,22.06,11.67,4.45,25.49,3.78,38.44,4.24,16.4.58,32.84.14,49.27.14.06,2.08.13,4.15.19,6.23-14.28,0-28.88-1.88-42.77.48-17.35,2.94-34.34,8.74-50.92,14.84-3.1,1.14-4.45,9.4-5.03,14.56-1.91,16.82-1.77,33.98-4.92,50.52-3.38,17.75,4.92,30.49,15.51,41.47,21.67,22.48,35.23,49.32,37.84,79.41,1.01,11.62-11.47,24.54-18.15,36.67-4.65,8.43-9.86,16.56-14.88,24.79-7.84,12.86-16.99,25.11-23.33,38.67-11.58,24.78-19.79,47.72-13.05,78.89,9.11,42.16,40.97,67.28,57.45,102.37,9.9,21.08,18.03,49.56,11.82,70.15-10.09,33.46,11.82,48.58,25.43,68.96,8.63,12.93,22.63,22.25,31.45,35.1,4.94,7.19,8.87,22.19,5.04,26.76-7.11,8.46-19.81,14.34-31.06,16.32-5.72,1.01-16.4-7.42-19.4-14.04-4.87-10.78-8.32-23.11,6.59-32.77,5.05-3.27,8.53-19.45,5.2-23.44-17.6-21.06-36.04-42.04-57.23-59.31-19.74-16.1-35.5-31.69-38.51-58.88-2.53-22.89-6.08-47.12-16.15-67.27-8.57-17.15-25.02-32.75-41.72-42.85-21.31-12.9-46.04-18.45-72.59-13.14-10.76,2.16-23.06-3.95-34.75-5.7-34.29-5.11-50.41,5.64-61.52,38.26-8.83,25.92-19.29,51.28-30.97,82.02Zm-281.03-425.17c-2.46-2.13-4.91-4.25-7.37-6.38-5.56,4.21-14.72,7.68-15.79,12.82-1.36,6.55,3.84,14.45,6.21,21.77,2.75-.14,5.51-.28,8.26-.41,2.89-9.27,5.79-18.53,8.68-27.8Z"/>
      <path d="m1486.68,4456.12c3.85-19.91,9.03-39.68,11.03-59.77,1.17-11.75,1.58-27.99-5.15-35.32-23.54-25.66-41.37-52.56-42.49-88.63-.13-4.33-6.2-12.36-8.93-12.11-20.36,1.81-25.28-18.14-39.66-24.19l1.8-5.07c4.84,1.19,9.68,2.39,16.51,4.07-6.86-19.88-13.48-39.06-21.52-62.36,18.99,1.79,33.49,1.13,46.73,4.89,18.1,5.14,32.75,2.78,40.8-14.36,7.3-15.54,3.81-29.92-13.08-38.73-2.23-1.16-3.47-4.24-2.57-6.21,2.8-27.33,34.98-47.63,15.85-80.14-2.75-4.67-2.01-13.13.16-18.64,6.4-16.31,14.32-32.01,22.12-48.97-6.66-7.12-14.96-16-23.27-24.88,15.59.68,15.44,20.64,36.13,16.87,13.89-2.54,25.54-4.28,36.89-13.21,21.54-16.96,45.77-30.76,66.01-49.05,31.98-28.9,76.94-23.84,105.04,11.87,10.07,12.8,26.39,20.67,37.43,28.97,13.19-8.95,24.88-16.87,39.11-26.53,5.61,39.31-5.69,84.59-26.96,113.7,6.83,4.31,13.34,8.81,20.21,12.67,9.04,5.08,18.05,10.47,27.67,14.16,5.79,2.22,13.06,2.98,19.06,1.65,7.79-1.73,14.97-6.18,24-8-17.18,26.14-59.39,38.61-42.64,81.76-6.02,3.21-12.23,5.23-16.74,9.2-8.75,7.69-7.59,14.76,3.73,19,14.28,5.35,28.64,10.49,45.54,16.66-13.97,3.15-25.37,5.72-36.77,8.29-.39,2.6-.78,5.21-1.16,7.81,11.76,3.33,23.53,6.66,31.96,9.05.63,9.64,4.66,20.27,1,25.69-8.3,12.27-19.65,22.9-31.26,32.34-5.91,4.81-15.09,5.59-25.24,9.02,15.23,13.93,27.33,23.86,21.55,42.66-1.54-5.25-3.08-10.51-4.44-15.17-12.83,7.66-25.04,13.18-35.02,21.4-9.38,7.73-16.42,18.32-24.07,27.18-3.38-8.47-11.65-23.38-28.96-13.37-8.31,4.8-14.53,17.42-16.79,27.58-3.46,15.57-7.13,24.73-26.08,19.96-4.63-1.17-11.81,7.81-17.82,12.13.8,1.66,1.6,3.31,2.39,4.97-17.08-2.15-34.15-4.3-53.82-6.77-2.01,11.16-4.67,25.86-7.99,44.26-1.03-7.86-1.65-12.37-2.21-16.9-2.15-17.44-7.32-19.35-24.29-12.45-5.31,2.16-13.44-.33-19.49-2.72-29.16-11.5-48.14-3.54-57.77,25.55-3.43,10.38-5.65,21.16-8.42,31.75-2.71-.52-5.42-1.04-8.13-1.55Z"/>
      <path d="m1912.33,4684.44c7.66-13.24,11.88-26.46,20.8-34.36,10.11-8.95,24.1-3.39,30.8,6.64,4.33,6.47,5.32,19.7,1.52,26.24-11.99,20.68-29.44,8.8-53.12,1.47Z"/>
      <path d="m1320.51,4034.94c-18.37-13.78-36.73-27.57-55.1-41.35l1.38-1.95c18.78,13.68,37.56,27.36,56.34,41.04-.87.75-1.75,1.5-2.62,2.25Z"/>
    </g>
  </g>
  <g id="avFXoA.tif-4" data-name="avFXoA.tif">
    <g fill="#5DD6B0">
      <path d="m301.53,4392.19c2.04-11.2,2.98-16.36,3.65-20.03,4.37,8.39,10.86,16.55,12.85,25.69,2.92,13.46,12.03,10.35,19.89,9.64,10.54-.95,12.09-6.82,6.52-15.56-2.98-4.67-4.93-9.99-8.67-17.79,31.04,10.68,28.1-10.77,30.66-26.56,1.64.36,3.27.71,4.91,1.07,0,16.15-1.57,32.51.45,48.41,1.96,15.45,6.5,30.84,11.98,45.49,3.58,9.59,21.53,8.97,27.24-.71,3.64-6.17,3.96-14.28,7.51-20.53,3.51-6.18,8.58-14.53,14.15-15.58,5.05-.95,15.76,5.68,16.97,10.67,5.2,21.45,9.24,43.43,10.81,65.42.89,12.5-5.07,25.35-5.68,38.14-.95,19.95,2.67,22.79,22.81,22.92,7.39.05,14.78,0,17.64,0,4.44-15.92,8.06-28.88,12.06-43.21,7.3,4.87,11.43,7.63,15.53,10.36-10.44,20.8-4.32,38.27,7.32,57.69,11.17,18.63,29.77,27.45,43.19,42.81,14.85-5.51,47.63,3.79,58.73,16.8,2.02,2.37,5.07,4.1,7.96,5.47,9.22,4.38,9.93,9.15,5.19,18.77-3.36,6.84-2.85,17.79.35,24.92,2.32,5.16,14.55,11.45,17.7,9.55,7.61-4.61,12.49-13.73,21.24-24.42,2.2-.16,9.49-.69,21.26-1.54-3.96,6.99-5.65,11.64-8.7,15.09-17.81,20.16-13.31,31.53,9.54,44.5,28.45,16.15,56.76,10.02,85.67,7.34,9.84-.91,41.94,23.86,42.6,35.63,2.16,38.52,31.63,51.85,59.45,67.04,4.89,2.67,10.86,4.28,14.5,8.11,6.12,6.44,16.49,16.3,14.8,21.07-3.08,8.66-13.28,20.07-21.25,20.69-20.59,1.6-41.57-2.25-62.41-3.56-11.84-.75-23.79-1.66-35.58-.91-11.9.76-24.09,2.19-35.38,5.75-9.51,2.99-22.17,7.44-25.74,14.91-4.31,9.03-2.95,20.58,7.72,31.26,11.75,11.76,17.21,29.84,25.14,45.31.93,1.82,1.1,5.44-.06,6.71-15.11,16.69-1.41,22.33,10.13,31.17,17.66,13.52,33.16,29.81,50.46,43.84,13.71,11.11,29.02,20.22,43,31.01,4.08,3.15,6.06,9.04,9,13.67-2.05,1.91-4.09,3.82-6.14,5.73-10.65-8.07-21.6-15.79-31.89-24.29-20.63-17.03-40.54-34.94-61.47-51.59-10.48-8.33-22.72-14.41-33.81-22.02-10.3-7.06-20.58-13.69-31.63-2.29-10.76,11.1-9.4,25.06-2.34,36.26,13.53,21.48,29.69,41.28,44.1,62.23,5.96,8.66,10.24,18.48,12.44,29.55-22.87-37.07-50.12-68.65-96.05-86.09-13.4,9.34-31.82,22.63-50.76,35.14-6.92,4.57-15.61,6.43-22.56,10.96-17.79,11.61-20.17,29.9-23.29,49.49-2.92,18.28-11.5,36.04-19.8,52.95-5.58,11.36-16.82,19.95-22.3,31.33-9.35,19.42-26.35,22.21-43.21,20.13-26.5-3.28-50.13,5.72-74.68,11.71-6.58,1.6-14.13,4.06-20.15,2.33-35.57-10.17-61.82,10.76-89.17,26.47-7.91,4.54-12.61,14.91-18.37,22.91-17.49,24.3-32.82,48.86-37.92,79.96-4.03,24.57-14.78,48.23-24.28,71.59-3.06,7.52-11.32,13.15-17.79,18.99-8.03,7.26-16.56,13.97-25.08,20.67-7.08,5.56-13.78,12.23-21.81,15.82-16.95,7.59-29.72,25.96-31.52,44.74-1.37,14.34-1.16,32.05-9.36,41.74-11.22,13.26-8.14,26.07-6.75,38.54,1.03,9.26-1.87,13.12-5.74,20.67-10.29,20.07-27.42,16.07-39.97,12.17-11.04-3.44-20.73-16.36-27.11-27.35-3-5.17,2.22-16.06,5.37-23.66,4.71-11.34,26.16-20.44,38.51-17.5,22.33,5.31,27.24,1.25,30.3-20.66,2.35-16.8,7.38-33.2,10.7-49.89,2.16-10.88,4.25-21.9,4.84-32.94,1.01-18.89-2.28-38.59,2.07-56.53,3.68-15.16,14.4-29.24,24.18-42.15,18.26-24.11,41.44-45.41,57.74-69.61,12.33-18.3,8.06-49.36,6.98-74.56-.7-16.4-8.3-32.7-14.09-48.58-2.28-6.24-6.96-12.8-12.4-16.49-26.53-17.99-30.76-50.15-48.01-74.06-11.82-16.38-46.87-28.59-64.92-19-5.95,3.16-12.24,6.06-18.73,7.75-16.04,4.19-33.26,1.05-48.36,12.52-13,9.88-29.14,15.62-48.25,21.19,3.48-6.84,6.6-13.9,10.58-20.44,2.19-3.59,5.44-6.83,8.89-9.29,8.43-6.02,16.59-14.69,26.02-16.61,36.9-7.49,51.02-42.86,42.68-74.48-6.27-23.78-24.06-32.21-53.07-27.35-20.23,3.39-39.96,9.99-60.23,12.88-16.07,2.29-33.29,4.16-48.82.77-24.22-5.28-37.04,10.2-52.43,22.24-8.22,6.43-15.34,14.8-24.41,19.53-27.37,14.27-55.4,27.3-83.34,40.46-2.78,1.31-6.72.18-14.97.18,8.75-7.22,14.99-11.62,20.29-16.95,5.73-5.76,10.26-12.69,15.88-18.57,24.39-25.58,52.3-46.39,84.61-60.99,4.08-1.84,8.38-4.43,12.61-4.5,38.41-.64,69.07-20.04,99.36-40.41,13.42-9.02,26.81-18.11,39.83-27.68,3.55-2.61,5.74-7.08,8.55-10.69-4.42-3.21-8.68-6.65-13.29-9.56-5.55-3.51-11.38-6.57-16.42-11.95-28.07-2.96-44.66,30.17-79.91,26.88,12.58-10.27,21.78-17.43,30.59-25.04,17.06-14.73,35.72-28.18,50-45.27,6.42-7.69,4.8-22.83,5.18-34.65.37-11.43-2.78-23.03-1.86-34.36,1.62-20.02-7.77-35.27-17.88-50.86-2.89-4.47-3.64-10.45-4.87-15.85-5.92-26.03-30.51-22.42-47.83-30.41-20.23-9.33-38.52-20.56-47.77-42.72-2.57-6.17-8.91-14.38-14.34-15.06-16.02-2.01-32.46-.72-49.7,3.35,14.54,11.25,29.08,22.5,45.6,35.29-20.07,2.67-35.93-.44-50.82-12.1-17.28-13.53-35.04-26.78-54.01-37.68-10.37-5.95-23.59-7.17-35.68-9.86-35.82-7.99-71.84-15.12-107.49-23.8-9.06-2.21-21.93-6.15-16.12-20.49,4.59-11.32,15.18-11.83,26.03-9.76,17.95,3.42,35.98,9.08,53.96,9.03,19.99-.05,35.28,7.8,52.25,16.31,15.24,7.64,33.78,10.57,51.13,11.77,64.22,4.45,128.56,7.1,192.83,10.93,23.42,1.4,46.74,4.52,70.15,6.16,5.44.38,13.58-.2,16.15-3.61,7.53-10,14.44-5,23.47-4.02,6.75.74,17.92-6.88,21.06-13.61,3.68-7.89,4.33-20.97.07-28.07-12.15-20.3-27.45-38.71-43.48-60.54,5.78.69,8.81.13,10.45,1.39,27.42,21.03,64.96,24.07,93.96,6.67,3.03-1.82,5.19-7.23,5.43-11.12.71-11.46.25-23,.25-35.88,4.91,6.84,8.27,13.05,13.03,17.87,16.2,16.41,29.3,17.11,48.28,4.89,6.34-4.08,14.11-6.05,21.36-8.61,12.71-4.49,22.08-11.73,20.93-26.66-1.06-13.7,3.58-27.66-8.55-40.54-6.24-6.63-4.88-20.24-7.39-30.59-3.77-15.52-7.28-31.14-12.05-46.35-8.3-26.46-18.52-52.37-25.81-79.08-2.99-10.95-.5-23.4,3.31-35.76,3.58,14.94,6,30.28,11.03,44.72,6.12,17.56,13.94,34.6,21.91,51.44,10.63,22.47,21.11,45.13,33.75,66.47,4.87,8.23,15.49,13.06,26.47,21.81Zm-156.91,142.67c19.42,1.76,35.45-5.96,33.72-17.06-.86-5.47-8.02-13.23-13.28-14.07-11.39-1.82-22.78,16.17-20.44,31.13Zm488.02,517.47c18.61,4.42,28.59,2.36,29.74-10.61.33-3.68-9.55-8.27-14.75-12.44-4.4,6.76-8.79,13.51-14.99,23.05Zm7.55,8.7c-7.9-5.89-11.69-8.72-17.26-12.88-4.03,6.36-7.73,11.48-10.36,17.11-.4.87,4.87,6.24,6.31,5.78,6.13-1.97,11.8-5.35,21.31-10.01Z"/>
      <path d="m-210.26,4320.29c-19.14-8.32-20.72-33.16-46.68-30.24-6.01,20.8,18.54,31.79,18.28,44.55-11.35,5.71-19.15,8.7-25.82,13.3-4.56,3.15-7.43,12.16-11.27,12.29-12.38.41-25.3-.59-37.11-4.09-5.68-1.68-8.68-11.03-14.14-15.32-4.22-3.32-11.1-6.69-15.45-5.42-4.16,1.22-7.36,8.04-9.58,13.03-4.76,10.74-8.05,22.16-13.25,32.65-1.32,2.67-7.54,2.91-11.51,4.26-.57-1.42-1.14-2.85-1.71-4.27,2.6-1.49,6.33-2.37,7.55-4.61,1.94-3.58,3.67-8.51,2.62-12-.6-1.97-6.9-2.46-10.72-3.13-4.38-.77-9.63.32-13.14-1.73-8.87-5.19-16.48-12.93-28.28-9.33-1.97.6-4.82.06-6.68-.99-23.17-13.16-23.41-13.16-40.03,5.61,1.62-4.21,3.71-8.31,4.76-12.66,1.95-8.14,6.46-17.62,3.94-24.29-2.24-5.93-12.09-10.09-19.42-12.76-14.52-5.29-26.65.65-39.39,8.63-16.15,10.11-21.74,6.89-30.67-11.81-5.88-12.31-14.77-13.44-31.48-4.01-3.25-5.53-5.16-13.65-9.98-16.11-16.88-8.65-24.56-20.83-18.45-42.9-22.76,2.04-35.59,17.71-55.37,24.35,3.4-4.93,6.19-9.29,9.29-13.41,3.29-4.37,8.16-8.05,9.97-12.91,1.93-5.17,3.38-12.92.83-16.69-2.49-3.68-10.31-3.75-15.89-5.44-2.81-5.04-6.38-11.43-11.05-19.81.84-1.22,3.23-4.69,4.61-6.7-12.27-12.95-23.59-25.44-35.63-37.2-2.78-2.72-8.54-4.91-12.01-3.96-17.31,4.72-34.5,10.08-51.29,16.38-4,1.5-6.34,7.45-9.44,11.35-.79-1.76-1.57-3.53-2.36-5.29-8.07,1.03-16.14,2.06-24.21,3.09-1.11-.97-2.21-1.95-3.32-2.92,4.39-3.6,8.31-8.11,13.25-10.63,20.55-10.53,41.13-21.07,62.29-30.26,6.93-3.01,15.64-1.92,24.24-2.78-1.48-1.87-3.78-4.79-6.37-8.08,7.33-4.86,15.93-8.12,20.41-14.34,3.34-4.64,1.34-13.12,2.27-20.32.32-5.46-.3-11.2,1.23-16.3,1.43-4.78,4.59-12.2,7.92-12.74,19.52-3.19,10.17-20.55,15.94-30.24,3.14-5.28,4.88-11.39,7.74-16.87,2.13-4.08,4.93-7.83,7.67-11.55,2.42-3.29,4.87-6.66,7.84-9.41,5.13-4.74,15.53-9.61,15.07-13.4-1.04-8.75-7.26-16.87-11.17-24.82,2.24-13.55,4.8-28.98,7.63-46.04,5.89,2.78,13.03,6.16,20.03,9.46,6.95-13.47,14.68-28.44,23.33-45.2,3.88-1.78,10.28-4.72,19.8-9.09,2.65,6.24,5.53,13.04,8.41,19.84.35-.42.71-.85,1.06-1.27,6.38,9.77,15.05,18.77,18.61,29.47,5.86,17.6,24.5,31.02,45.35,28.82,13.28-1.4,27.05-18.96,27.21-34.79.13-13.11-1.58-28.06,19.73-17.53,1.59.79,5.43.04,6.36-1.3,11.8-16.81,30.84-15.13,47.66-19.16,11.7-2.81,20.33-8.71,23.15-21.53,2.88-13.12,10.59-20.56,25.14-19.92,8.81.39,18.54,1.84,21.94-10.98.52-1.97,10.72-3.54,15.23-1.93,18.4,6.59,24.49,2.95,24.34-16.54-.09-11.74-2.58-24.38,14.85-29.65-2.2,10.69-4.35,20.63-6.24,30.61-.62,3.28-2.07,7.87-.54,9.83,6.95,8.88,13.38,19.56,22.69,24.9,15.95,9.14,34.57,13.52,50.87,22.16,28.94,15.35,60.39,16.25,91.53,21.64,20.54,3.55,38.26,19.2,52,39.12,13.33,19.32,20.32,39.54,13.39,59.23-8.2,23.3-3.57,45.89-5.66,68.67-.25,2.75.69,5.6.54,4.53,15.72,4.08,30.44,5.62,42.79,11.85,9.53,4.8,11.02,15.14-.21,23.03-18.46,12.98-35.81,28.04-59.89,29.62-1.08.07-2.57.58-3.09,1.39-14.22,21.99-37.53,12.15-57.95,15.74-2.05,13.85-5.79,26.48,7.3,37.98,6.03,5.29,12.48,13.45,2.76,23.71-3.59,3.79-1.25,13.18-1.53,18.42,15.34,9.47,29.31,18.09,46.67,28.8-38.12-3.02-72.09-5.71-105.24-8.34-9.09,28.65-9.73,28.63-34.89,19.46-5.57-2.03-14.32-2.62-18.24.43-3.03,2.36-2.28,11.88-.68,17.49,5.72,19.94,12.53,39.58,18.92,59.33Z"/>
      <path d="m786.65,4640.17c-16.31-6.39-31.93-12.46-47.5-18.65-3.6-1.43-7.45-2.73-10.45-5.04-14.89-11.51-20.38-9.09-25.5,8.52-1.82,6.24-8.81,13.71-14.85,15.3-7.33,1.93-16.19-1.55-24.19-3.52-.48-.12-.62-9.77,1.57-11.21,11.38-7.47,25.34-11.88,34.86-21.04,6.45-6.2,7.93-18.29,10.11-28.08,3.48-15.66,1.25-34.48,9.3-46.85,20.5-31.53,53.65-41.89,84.77-26.17,18.17,9.18,31.52,28,46.68,42.85,1.54,1.51,1.54,5.87.65,8.34-4.5,12.48-8.92,25.05-14.55,37.03-4.37,9.28-10.73,17.61-15.77,26.61-6.63,11.85-7.57,20.93,7.48,29.04,24.59,13.24,22.78,45.68-2.04,59.3-22.94,12.59-33.14,9.43-49.86-7.8-11.47-11.82-9.18-27.18,4.98-46.05,2.23-2.97,2.59-7.35,4.31-12.57Z"/>
      <path d="m662.13,3935.04c11.55-4.41,22.78-10.28,34.73-12.89,18.98-4.14,30.67,6.29,30.82,25.42.11,14.11,1.27,28.41-.62,42.26-.81,5.94-7.06,13.36-12.75,16.04-32.13,15.09-51.84,3.36-66.34-21.9-7.87-13.71,3.02-19.48,4.96-28.7,1.26-6.01,7.09-11.06,10.86-16.54-.55-1.23-1.1-2.46-1.65-3.7Z"/>
      <path d="m548.25,4093.94c16.89,14.92,17.03,23.47,4.51,35.11-4.28,3.98-8.41,10.72-8.44,16.22-.11,19.4,1.67,38.81,2.48,58.23.07,1.77-1.66,3.62-6.47,5.29-.27-5.11-.76-10.21-.79-15.32-.12-22.98-.9-46,.24-68.92.48-9.62,5.12-19.03,8.47-30.61Z"/>
      <path d="m522.52,4308.13c0-9.35-1.59-19.05.36-27.98,3.24-14.91,8.74-29.33,16.36-43.95-2.79,24.12-5.57,48.25-8.36,72.37-2.79-.15-5.57-.29-8.36-.44Z"/>
      <path d="m296.46,4359.44c-5.13-19.65-10.26-39.29-15.39-58.94,2.64-.61,5.28-1.23,7.91-1.84-.14,20.84,19.99,37.38,7.47,60.78Z"/>
      <path d="m962.07,4329.74c3.04-5.98,6.08-11.96,9.12-17.94,6.43,3.75,12.86,7.5,19.29,11.25-7.11,4.5-14.22,9-21.34,13.5-2.36-2.27-4.71-4.54-7.07-6.81Z"/>
      <path d="m793.1,5153.61q22.65,13.96,19.65,34.76c-12.6-8.22-24.24-15.75-19.65-34.76Z"/>
      <path d="m-2.04,4420.36c7.51,11.35,15.03,22.7,22.54,34.05-16.22-5.96-24.81-16.68-27.48-31,1.65-1.02,3.29-2.03,4.94-3.05Z"/>
      <path d="m733.94,4281.68v-13.87c5.3-.7,10.72-1.42,17.25-2.28.29,5.4.53,9.73.83,15.29-6.24.3-11.77.56-18.09.86Z"/>
      <path d="m678.12,4156.72c.35,4.75.7,9.49,1.45,19.74-7.53-5.47-11.59-8.41-15.65-11.36,3.41-3.64,6.82-7.29,10.23-10.93l3.96,2.55Z"/>
    </g>
  </g>
</svg>