<?xml version="1.0" encoding="UTF-8"?>
<svg fill="#5DD6B0" id="Layer_1" data-name="Layer 1" xmlns="http://www.w3.org/2000/svg" viewBox="0 0 1920 2526">
  <g id="avFXoA.tif">
    <g>
      <path d="m71.6,1247.28c1.17,7.27,2.35,14.53,3.84,23.76h-23.38c2.47-8.76,4.59-16.26,6.71-23.76,4.28,0,8.56,0,12.84,0Z"/>
      <path d="m221.96,2192.99c17.48-27.09,23.33-74.07,8.24-99.35-2.76-4.63-11.07-7.29-17.21-8.22-9.03-1.36-18.42-.35-28.57-3.1,3-1.2,6.11-2.18,8.99-3.63,15.9-8.05,23.08-26.54,16.46-42.81-5.01-12.29-10.11-24.56-15.65-36.62-10.73-23.37-37.82-28.31-59.1-14.35-12.05,7.9-27.91,10.23-42.26,14.34-40.01,11.45-79.98,23.08-120.3,33.36-10.2,2.6-21.63.39-32.43-.71,78.39-21.57,168.5-66.98,179.72-92.83-5.39-2.07-10.72-4.12-17.2-6.62,2.76-1.27,4.42-2.19,6.18-2.82,9.03-3.27,19.49-4.69,26.59-10.35,4.24-3.38,3.23-13.37,4.58-20.38-4.97-.71-10.04-2.38-14.88-1.85-5.02.54-9.82,3.21-17.21,5.84,4.94-24.17-6.96-30.51-25.09-33.67,14.61,0,29.36,1.24,43.8-.33,15.73-1.71,31.68-4.65,46.48-9.97,5.02-1.81,11.16-14.52,9.21-18.73-3.68-7.95-11.86-16.25-20.01-19.07-10.42-3.59-25.52-2.08-23.8-16.94,1.77-15.26,16.29-16.65,29.93-16.72,6.69-.04,13.31-4.73,20.04-4.96,12.92-.45,25.89.97,38.86,1.27,14.32.33,31.62,5.15,42.04-1.18,8.13-4.94,7.74-23.94,10.87-35.68-18.16-4.4-31.42-7.61-46.85-11.34,5.12-8.06,8.34-13.13,8.88-13.98,13.55,2.1,24.4,5.26,35.13,4.88,6.04-.21,12.31-5.68,17.71-9.79,10.45-7.94,21.8-15.38,30.14-25.25,9.74-11.54,17.55-22.9,19.05-41.28,1.58-19.42,18.03-37.62,28.91-58.11,6.46,3.95,10.23,6.75,14.4,8.71,12.24,5.73,23.58,5.16,31.11-7.47,7.79-13.06,1.09-21.76-9.34-30.17-6.05-4.88-9.81-12.62-17.27-22.68,9.84,0,12.47-.83,13.96.12,36.14,23.15,55.23,14.03,60.13-30.29,1.86-16.82.04-34.04.05-51.07.01-27.29,19.51-49.39,46.19-52.61,27.15-3.27,38.29-24.39,50.61-44.73,8.9-14.68,19.26-28.47,28.71-42.29,27.2,15.07,37,32.21,28.15,59.13-11.21,34.1-8.83,67.08-.66,100.37,2.27,9.27,8.47,23.03,15.1,24.47,9.61,2.08,21.79-3.98,31.88-8.69,14.66-6.85,28.42-15.63,42.63-23.46,1.13-.62,3.13-.82,4.18-.23,35.37,19.69,38.33-17.27,54.25-31.25,6.29-5.52,11.9-11.99,17.02-18.65,11.05-14.38,21.06-29.59,32.57-43.57,5.23-6.34,13.02-10.57,19.65-15.75,2.14,2.36,4.28,4.72,6.42,7.08-16.1,17.46-33.45,33.94-47.99,52.62-20.51,26.36-39.66,53.89-57.51,82.11-2.81,4.45,2.94,20.91,7.11,21.91,10.97,2.65,25.41,3.66,34.61-1.52,27.01-15.22,52.06-33.91,78.14-50.83,3.01-1.95,7.66-1.35,12.32-.56-31.78,22.19-65.59,41.88-81.31,79.64-2.23,5.36-4.23,13.36-1.85,17.67,14.83,26.84,29.31,54.19,47.48,78.71,6.48,8.74,22.7,13.35,34.87,14.19,39.52,2.74,70.81,23.26,99.34,46.65,9.75,7.99,13.21,28.83,12.4,43.39-1.46,26.25,3.7,50.41,11.43,74.8,2.07,6.53,2.91,14.17,1.77,20.87-7.6,44.74,9.84,77.65,46.56,101.92,20.6,13.62,40.17,29.38,62.19,40.1,16.55,8.06,36.35,9.28,54.53,14.18,31.57,8.5,52.57,31.4,72.95,54.89,5.83,6.72,13.5,13.33,15.87,21.32,7.01,23.69,24.87,28.77,45.78,32.63,14.14,2.61,27.36,9.83,41.33,13.77,11.83,3.34,24.07,6.25,36.27,7.03,18.07,1.16,34.48,12.79,35.99,27.82,1.74,17.29-13.4,40.24-29.07,44.1-20.35,5-46.3-21.89-40.53-42.02,5.97-20.85.5-25.6-19.21-32.85-19.75-7.26-43.28-1.29-60.29-18.44-3.24-3.26-12.4-1.83-18.54-.83-41.75,6.81-78.77.84-109.77-31.98-16.92-17.91-36.9-33.64-57.64-47.04-22.69-14.67-49.55-20.33-76.09-13.8-32,7.88-63.29,15.96-87.56,43.8-13.3,15.26-39.1,18.97-57.66,30.47-18.63,11.55-25.81,33.36-21.08,52.14,10.83,43.01,26.72,84.75,40.72,127.49-1.19-.11-10.01,1.6-12.34-1.54-11.37-15.27-23.78-30.76-30.5-48.23-7.54-19.59-20.48-33.65-38.18-38.68-21.92-6.24-46.91-3.92-61.46,16.4-6.44,8.99-5.65,25.93-3.01,38.15,8.19,37.99,13.36,75.6,12.22,114.92-.45,15.53,16.73,31.38,25.28,47.41,19.65,36.88,38.92,73.95,55.42,112.58-38.51-32.81-79.11-63.32-95.26-113.28-5.14-15.88-5.31-33.65-11.95-48.7-11.8-26.76-26.51-52.26-40.61-77.97-5.95-10.86-12.81-21.38-20.58-30.99-2.41-2.98-10.61-4.94-13.64-3.14-15,8.95-19.8,43.47-9.86,58.78,7.81,12.02,14.49,24.78,21.67,37.22-2.25,1.59-4.5,3.19-6.75,4.78-11.24-13.87-22.3-27.89-33.77-41.56-14.34-17.09-28.05-35.94-53.1-37.01-45.64-1.94-89.17,6.91-128.92,30-5.15,2.99-7.6,11.66-10.02,18.17-10.83,29.06-21.91,56.81-55.5,68.38-15.56,5.36-19.77,41.14-8.6,65.49,6.57-7.45,12.72-13.71,18.01-20.62,5.55-7.23,10.28-15.09,17.21-25.4,7.05,27.6-3.73,49.74-19.56,63.07-37.28,31.37-37.34,74.68-46.69,115.95-5.87,25.88-15.79,50.89-24.71,75.99-1.39,3.91-7.69,9.12-10.85,8.58-3.84-.65-7.07-6.53-9.93-10.59-1.54-2.18-2.86-5.48-2.41-7.94,6.05-33.76,11.85-67.59,18.9-101.15,5.61-26.72,15.65-52.77,18.8-79.7,7.66-65.42,12.47-131.18,18.41-196.81,2.34-25.86,7.22-50.91-4.2-77.28-4.77-11.02,3.26-28.81-14.3-34.22-8.58-2.65-20.54-2.93-28.02,1.13-20.09,10.92-38.6,24.76-57.74,37.44Zm43.62-99.89c-1-14.41-2.41-28.54-19.22-32.19-3.14-.68-12.97,10.05-12.07,13.58,3.39,13.38,8.56,27.96,31.29,18.6Zm514.89-512.06c-1.92-.63-3.84-1.25-5.75-1.88-3.38,8.81-6.75,17.62-10.13,26.43,8.24,2.58,16.47,5.17,24.71,7.75,1.43-1.98,2.85-3.95,4.28-5.93-4.37-8.79-8.74-17.58-13.11-26.37Z"/>
      <path d="m-160.09,2941.67c2.13,0-5.3,1.22-5.83-.18-9.9-26.16-35.82-19.76-54.52-28.02-24.06-10.62-47.27-23.16-70.8-34.98-1.11-.56-1.74-2.16-2.5-3.34-16.25-25.23-20.42-25.61-36.77-5.89-16.41-2.64-31.18-5.01-48.87-7.85,3.66-6.39,7.4-12.91,9.37-16.36-15.7-12.61-31.53-24.47-46.02-37.78-2.58-2.37-1.68-14.01,1.18-15.88,13.2-8.6,27.24-16.27,41.79-22.31,15.87-6.59,28.79-25.67,26.88-43.46-1.58-14.73-17.99-28.01-35.77-28.57-11.28-.35-22.78.82-16.98-17.23,1.35-4.21-3-10.27-4.76-15.46-3.74-11.06-10.09-21.98-10.65-33.19-.83-16.66-9.78-24.42-22.2-32.84-8.64-5.86-14.18-16.46-20.58-25.32-1.42-1.97.5-7.04-1.01-8.17-16.3-12.25-10.34-27.81-8.45-43.76,1.63-13.7-10.22-11.98-19.52-12.83-9.58-.88-19.02-3.38-28.51-5.17l1.91-7.83c3.64.98,7.28,1.96,10.92,2.93,27.45,7.29,49.65-6.47,61.1-32.93,17.46-40.34,30.74-80.82,36.04-125.2,5.38-45.02,67.81-72.34,111.45-58.14,19.13,6.23,41.97,1.05,64.13,1.05,7.61-17.13-7.37-43.81,24.79-53.35,28.05,37.78,49.1,80.02,55.62,135.12,17.15-5.55,33.54-10.85,53.65-17.36,22.31,9.24,15.41,18.71,53.65-34.27-.84,8.22-1.49,16.46-2.56,24.65-1.73,13.13-5.33,26.22-5.32,39.33.02,32.2.67,32.2,25.7,53.27-2.83,5.04-6.84,10.06-8.53,15.76-1.81,6.12-1.42,12.89-1.99,19.37,6.69.36,13.79,2.34,20.01.78,19.31-4.84,38.29-11.02,58.7-13.26-11.73,11.44-23.46,22.87-35.19,34.31,1.89,2.76,3.77,5.52,5.66,8.28,14.79-5.73,29.58-11.46,41.13-15.93,7.91,8.9,14.85,17.5,22.62,25.26,9.81,9.79,3.98,46.17-9.8,58.22q-12.92,11.3-8.79,28.68c18.47,1.55,38.21,1.73,50.36,24.44-11.02-3.89-18.98-6.7-23.31-8.22-4.42,11.74-6.17,20.41-10.58,27.39-13.84,21.89-15.27,53.93-1.58,69.17-2.38.21-5.2,1.34-6.26.42-11.88-10.32-27.58-16.51-36.08-1.85-6.6,11.39-5.66,29.5-2.68,43.48,3.22,15.1,22.48,28.96-7.76,39.03-8.63,2.87-21.5,19.24-14.83,24.95-4.88,9.48-8.24,20.35-15.19,27.94-4.64,5.06-14.24,6.71-21.88,7.63-13.5,1.61-15.3,8.46-9.49,18.5,6.2,10.71,13.69,20.68,17.98,34.25-4-3.21-8.34-6.08-11.93-9.7-16.12-16.27-20.84-14.57-32.11,4.97-3.71,6.44-15.68,10.29-24.34,11.29-25.13,2.91-48.38,33.74-40.8,57.65,5,15.79,13.22,30.59,17.78,46.47,2.52,8.77.45,18.85-2.46,30.25-3.31-6.05-7.04-11.9-9.86-18.17-11.35-25.25-22.41-50.63-35.38-80.03Z"/>
      <path d="m379.21,1458.3c-10.22,21.06-20.15,40.41-28.99,60.23-4.2,9.41-3.38,17.12,9.47,21.08,22.9,7.06,25.71,21.97,9.04,40.89-1.33-.42-3.52-.53-3.85-1.36-13.83-35-36.43-53.16-77.07-51.09-37.58,1.91-69.6-66.23-44.42-96.8,6.63-8.05,13.01-16.44,20.54-23.57,21.7-20.54,40.23-21.32,66.35-3.95,5.8,3.86,11.83,7.37,17.83,10.9,15.03,8.84,27.48,16.93,40.78-5.98,6.35-10.94,25.37-18.46,41.17-8.05,14.03,9.24,22.68,21.06,20.79,40.25-2.09,21.2-17.04,28.65-32.66,33.04-7.4,2.08-17.68-5.67-26.52-9.28-4.31-1.75-8.33-4.21-12.44-6.33Z"/>
      <path d="m1796.79,2256.09c-.07-25.64,26.24-51.91,52.71-52.63,33.02-.9,68.92,36.4,68.84,71.53-.05,23.05-36.35,47.5-70.05,47.18-21.89-.21-51.43-38.1-51.5-66.08Z"/>
      <path d="m1042.86,1479.61c24.6.1,55.9,33.61,54.97,58.86-.64,17.5-41.71,54.84-60.12,54.67-21.51-.2-52.64-33.41-53.26-56.84-.72-26.93,30.05-56.8,58.41-56.69Z"/>
      <path d="m1559.33,1935.29c-.45,17.3-24.63,42.03-41.28,42.19-22.88.23-45.49-23.3-45.43-47.29.04-17.69,26.76-43.92,44.53-43.73,16.6.18,42.66,30.35,42.18,48.82Z"/>
      <path d="m1494.87,2350.48c-19.62.07-31.6-10.45-31.71-27.85-.11-16.02,12.86-29.25,28.87-29.43,15.14-.18,32.48,14.64,32.97,28.16.65,17.97-10.82,29.05-30.13,29.12Z"/>
      <path d="m1321.85,1857.69c-10.15,9.89-16.88,16.46-23.62,23.04-6.2-6.75-17.72-13.93-17.23-20.16.59-7.49,10.34-16.52,18.27-20.12,3.38-1.53,12.23,9.01,22.58,17.24Z"/>
      <path d="m40.56,1714.06c-23.2-3.91-46.39-7.83-69.59-11.74.23-2.05.46-4.09.69-6.14,23.33,2.86,46.66,5.72,69.99,8.58-.36,3.1-.73,6.2-1.09,9.3Z"/>
      <path d="m924.97,1433.72c-11,24.66-12.34,25.75-32.05,24.98,8.1-12.5,8.33-33.15,32.05-24.98Z"/>
      <path d="m87.76,1942.12c-17.62,4.05-35.24,8.11-52.86,12.16l-1.44-6.24c17.66-4.22,35.33-8.43,52.99-12.65.44,2.24.87,4.48,1.31,6.73Z"/>
      <path d="m185.92,2223.88c-10.38,7.21-20.76,14.41-31.14,21.62-1.38-2.13-2.76-4.27-4.14-6.4,10.78-6.63,21.57-13.26,32.35-19.89.98,1.56,1.95,3.11,2.93,4.67Z"/>
    </g>
  </g>
  <g id="avFXoA.tif-2" data-name="avFXoA.tif">
    <g>
      <path d="m2431.07,912.67c-19.06-22.02-38.35-43.86-57.12-66.12-15.37-18.23-14.31-42.46-22.32-63.25-8.21-21.31-20.67-41.02-31.74-61.18-4.68-8.52-10.07-16.77-16.16-24.31-1.9-2.35-8.32-3.9-10.72-2.5-11.48,6.74-15.37,34.39-7.79,46.08,6.13,9.44,11.39,19.44,17.04,29.19l-5.29,3.75c-8.83-10.86-17.5-21.84-26.51-32.55-11.27-13.39-22.02-28.19-41.71-29.03-35.85-1.53-70.05,5.39-101.28,23.5-4.05,2.35-5.98,9.13-7.89,14.23-8.51,22.78-17.18,44.57-43.58,53.63-12.21,4.19-15.55,32.2-6.58,51.92,9.44-12.1,18.01-23.1,27.71-35.55,5.32,20.55-3.16,37.88-15.6,48.35-29.78,25.07-29.46,59.66-36.79,92.58-4.4,19.77-12.32,38.79-19.3,57.92-1.13,3.08-6.02,7.17-8.51,6.76-3-.49-5.56-5.1-7.82-8.28-1.21-1.7-2.26-4.29-1.91-6.22,4.75-26.48,9.3-53,14.83-79.32,4.41-20.95,12.31-41.38,14.79-62.49,6.02-51.3,9.79-102.86,14.46-154.32,1.84-20.28,5.69-39.93-3.3-60.59-3.75-8.64,2.61-22.59-11.21-26.85-6.75-2.08-16.14-2.34-22.02.84-15.79,8.56-30.33,19.42-46.53,28.43,16.06-20.98,15.28-44.1,11.24-67.63-1.92-11.18-7.32-18.29-20.45-16.25-5.99.93-12.25.16-19.12-1.93,2.34-.94,4.77-1.72,7.02-2.85,12.5-6.3,18.17-20.8,12.97-33.55-3.93-9.64-7.94-19.26-12.29-28.71-8.43-18.34-29.72-22.25-46.43-11.31-9.47,6.2-21.91,8.04-33.18,11.26-31.43,8.98-62.84,18.09-94.51,26.14-8.02,2.04-17.01.31-25.5-.53,62.41-17.34,132.33-52.5,141.19-72.77-4.22-1.63-8.39-3.24-13.49-5.21,2.12-.99,3.41-1.72,4.79-2.22,7.09-2.56,15.31-3.68,20.89-8.11,3.34-2.65,2.56-10.47,3.63-15.96-3.9-.57-7.88-1.91-11.67-1.5-3.96.43-7.75,2.55-13.9,4.75,5.12-19.93-6.33-22.87-19.35-26.56,11.47,0,23.04.97,34.37-.26,12.36-1.34,24.89-3.64,36.52-7.81,3.95-1.42,8.8-11.37,7.27-14.66-2.89-6.23-9.3-12.75-15.7-14.97-8.17-2.83-20.06-1.62-18.73-13.26,1.36-11.96,12.76-13.09,23.49-13.14,5.25-.02,10.46-3.68,15.75-3.87,10.15-.36,20.34.72,30.52.96,11.26.26,24.84,4.07,33.03-.88,6.4-3.86,6.11-18.77,8.58-27.99-14.26-3.44-24.68-5.96-36.8-8.88,4-6.32,6.52-10.29,6.92-10.94,10.65,1.63,19.18,4.08,27.6,3.78,4.75-.17,9.68-4.43,13.93-7.64,8.22-6.22,17.12-12.06,23.68-19.8,7.66-9.04,13.83-17.92,14.98-32.36,1.22-15.22,14.15-29.51,22.69-45.57,5.07,3.07,8.04,5.25,11.31,6.79,9.61,4.51,18.5,4.08,24.44-5.81,6.15-10.25.9-17.07-7.29-23.67-4.72-3.8-7.67-9.8-13.67-17.81,7.78,0,9.85-.65,11.02.1,28.45,18.14,43.4,11.04,47.26-23.7,1.47-13.19.03-26.69.04-40.05,0-21.42,15.32-38.79,36.26-41.28,21.35-2.54,30.1-19.09,39.78-35.05,6.98-11.52,15.12-22.34,22.54-33.17,21.38,11.75,29.1,25.22,22.16,46.32-8.79,26.73-6.97,52.6-.54,78.7,1.79,7.27,6.63,18.08,11.84,19.21,7.55,1.65,17.13-3.09,25.06-6.79,11.52-5.37,22.32-12.27,33.48-18.41.88-.49,2.46-.65,3.28-.19,27.82,15.53,30.11-13.55,42.63-24.48,4.95-4.32,9.34-9.41,13.37-14.62,8.69-11.27,16.56-23.19,25.6-34.16,4.11-4.98,10.22-8.31,15.42-12.38l5.06,5.55c-12.63,13.69-26.25,26.62-37.66,41.26-16.11,20.67-31.16,42.25-45.19,64.37-2.21,3.49,2.28,16.39,5.55,17.19,8.61,2.09,19.96,2.91,27.19-1.15,21.22-11.93,40.9-26.58,61.39-39.86,2.36-1.53,6.01-1.09,9.67-.49-24.88,17.48-51.49,32.84-63.82,62.44-1.75,4.2-3.35,10.48-1.49,13.85,11.65,21.05,23.03,42.48,37.3,61.72,5.09,6.86,17.82,10.5,27.38,11.15,31.05,2.14,55.64,18.23,78.05,36.56,7.66,6.26,10.4,22.59,9.77,34.01-1.14,20.58,2.89,39.53,8.97,58.65,1.63,5.12,2.29,11.11,1.41,16.36-5.9,35.04,7.68,60.9,36.56,79.92,16.19,10.67,31.55,23.04,48.85,31.45,13,6.32,28.56,7.26,42.85,11.11,24.78,6.68,41.31,24.62,57.32,43.04,4.58,5.27,10.61,10.45,12.47,16.71,5.5,18.55,19.5,22.6,35.95,25.61,11.11,2.04,21.5,7.69,32.47,10.79,9.29,2.62,18.91,4.91,28.49,5.52,14.2.91,27.11,10.01,28.31,21.78,1.38,13.59-10.45,31.54-22.81,34.6-15.98,3.96-36.41-17.13-31.88-32.91,4.92-17.14,1.34-21.2-16.88-25.57-15.38-3.69-30.06-10.22-45.26-14.81-4.6-1.39-10.03-1.3-14.85-.52-32.79,5.33-61.89.68-86.25-25.04-13.3-14.04-29-26.36-45.28-36.89-17.82-11.54-38.92-15.96-59.77-10.84-25.13,6.18-49.73,12.5-68.8,34.32-10.46,11.97-30.69,14.91-45.29,23.9-14.68,9.05-20.28,26.18-16.59,40.87,8.48,33.73,20.98,66.46,31.98,99.99-.91-.08-7.84,1.28-9.67-1.17-8.93-11.97-18.69-24.12-23.98-37.81-5.92-15.35-16.07-26.42-29.97-30.35-17.2-4.87-36.87-3.19-48.29,12.82-5.05,7.08-4.47,20.33-2.4,29.91,6.46,29.79,10.47,59.28,9.6,90.11-.34,12.19,13.13,24.61,19.84,37.18,15.45,28.96,30.62,58.08,45.9,87.13-2.42,1.2-4.85,2.4-7.27,3.61Zm-422.73-338.06c-7.95-8.59-13.47-14.57-19-20.54-3.63,3.58-10.9,9.47-10.32,10.38,4.17,6.56,9.54,12.57,15.53,17.57,1.12.93,6.73-3.5,13.79-7.41Zm405.26-370.56c1.59-1.51,3.17-3.01,4.76-4.52-3.67-7.37-7.34-14.74-11.01-22.11-1.71.16-3.42.33-5.14.49-2.06,6.89-5.66,13.86-5.28,20.6.12,2.15,10.81,3.71,16.66,5.54Z"/>
      <path d="m1801.03,1143.11c-4.25,7.81-6.93,17.42-13.22,22.89-5.43,4.72-14.96,4.73-27.11,8.03,6.24,11.89,12.54,23.9,18.84,35.9-.41.71-.81,1.41-1.22,2.12-3.89-3.55-7.74-7.15-11.66-10.65-11.94-10.66-16.84-8.68-22.73,5.53-2.04,4.93-10.18,8.93-16.24,10.34-31.35,7.3-42.47,26.87-32.05,58.34,4.83,14.57,9.8,29.1,14.71,43.64-2.07.84-4.13,1.68-6.2,2.52-3.5-7.85-6.91-15.75-10.54-23.54-3.99-8.56-8.31-16.96-12.24-25.55-3.63-7.92-6.93-16-11.63-26.93,1.7-.1-4.15,1.12-4.54.15-8.29-20.49-28.6-16.56-44.06-22.84-18.62-7.56-36.22-17.62-54.18-26.74-1.32-.67-2.18-2.44-3.01-3.84-11.33-19.36-15.14-19.6-29.04-3.88-13.04-2.13-24.62-4.02-38.2-6.24,2.84-5.01,5.57-9.82,7.37-12.99-11.96-9.62-24.71-19.2-36.41-29.93-1.89-1.74-.68-11.09,1.75-12.56,11.06-6.68,22.93-12.07,34.75-17.4,11.53-5.19,22.85-24.06,18.4-35.8-4.54-11.97-12.62-21.88-28.3-20.37-9.74.94-17.04-.8-12.53-13.99,1.08-3.15-2.85-7.92-4.23-12.02-2.93-8.67-7.61-17.3-8.1-26.13-.73-13.14-8.07-18.83-17.95-25.27-6.77-4.41-10.89-13.13-15.6-20.31-2.52-3.83-4.26-8.36-5.5-12.8-1.49-5.33-3.95-11.38-2.71-16.29,3.91-15.45.66-20.29-15.16-21.08-7.3-.37-14.51-2.6-21.75-3.98l.94-5.53c2.77.31,5.65.24,8.3.99,22.88,6.44,39.31-3.75,48.98-25.75,13.9-31.62,23.65-63.53,28.37-98.14,4.87-35.67,52.34-55.74,87.83-44.73,15.14,4.69,32.95.78,50.16.78,5.1-14.36-5.58-34.82,19.34-42.1,22.58,29.24,36.14,63.19,43.97,102.16,14.4,6.85,26.15-3.57,37.82-11.73,22.58,10.61,16.16,14.62,46.94-29.62-1.39,11.24-2.13,17.86-3.05,24.44-1.35,9.74-4.11,19.48-4,29.19.3,26.09.78,26.08,19.25,42.55.01,1.11.3,2.31-.03,3.3-2.61,7.93-5.33,15.83-8.01,23.73,8-.93,16.07-1.5,24-2.88,12.82-2.23,25.55-5,41.08-8.09-11.58,10.82-20.87,19.52-30.17,28.21,1.38,2.35,2.76,4.69,4.14,7.04,11.85-4.44,23.7-8.88,32.67-12.23,5.99,6.91,10.81,13.6,16.76,19.06,7.81,7.17,5.26,34.6-4.8,44.27-3.09,2.97-7.42,5.29-9.16,8.88-4.24,8.75-4.75,16.06,8.77,16.8,16.55.91,24.64,6.48,28.28,17.54-5.84-2.41-11.63-4.8-15.16-6.26-3.82,9.49-5.84,17.12-9.73,23.64-10.7,17.9-11.15,40.67,1.03,52.12-2.9.27-5.52,1.31-6.46.47-9.41-8.4-21.49-12.38-28.26-.96-5.07,8.56-3.24,21.75-2.71,32.8.24,5.05,6.55,9.82,6.78,14.87.22,4.66-2.77,12.02-6.48,13.86-13.91,6.86-19.13,15.42-17.08,22.98Z"/>
      <path d="m1567.38,186.03c-6.66-5.09-12.35-11.05-19.29-14.41-15.01-7.26-24.9-25.57-18.6-40.47,2.19-5.17,9.23-9.31,14.98-11.66,5.41-2.21,12.06-2.1,18.13-1.88,24.41.87,26.91.63,35.22,26.08,4.87,14.92-4.29,23.41-14.41,31.31-5.05,3.94-10.56,7.3-16.03,11.04Z"/>
      <path d="m1748,269.31c-27.91-1.5-55.81-2.99-83.72-4.49-.26-3.23-.53-6.46-.79-9.69,6-1.09,15.8-4.96,17.37-2.82,11.13,15.2,26.5,10.97,41.03,11.1,8.73.08,17.46.01,26.19.01-.03,1.96-.06,3.92-.09,5.89Z"/>
      <path d="m1315.03,1072.58h-72.33c-.01-.62-.02-1.25-.03-1.87h72.32c.01.62.02,1.25.04,1.87Z"/>
      <path d="m1772.74,268.62c18.38,2.29,36.77,4.59,55.15,6.88-.3,2.28-.6,4.56-.9,6.84-18.15-2.86-36.31-5.73-54.46-8.59.07-1.71.14-3.42.2-5.13Z"/>
      <path d="m1885.28,1373.59c-7.87-10.61-15.74-21.22-23.61-31.83,2.03-1.47,4.05-2.94,6.08-4.41,7.95,10.54,15.9,21.08,23.86,31.61-2.11,1.54-4.21,3.09-6.32,4.63Z"/>
      <path d="m1821.66,465.8c13.8-3.09,27.6-6.18,41.4-9.26.33,1.67.67,3.33,1,5-13.85,2.97-27.7,5.94-41.55,8.92-.28-1.55-.56-3.1-.85-4.65Z"/>
      <path d="m1913.31,693.8c8.34-4.99,16.67-9.97,25.01-14.96.78,1.21,1.56,2.41,2.33,3.62-8.02,5.69-16.05,11.38-24.07,17.07l-3.27-5.73Z"/>
    </g>
  </g>
</svg>